[
  {
    "id": 0,
    "note": 61,
    "at": 0,
    "duration": 160,
    "velocity": 90
  },
  {
    "id": 1,
    "note": 61,
    "at": 0,
    "duration": 160,
    "velocity": 90
  },
  {
    "id": 2,
    "note": 64,
    "at": 160,
    "duration": 160,
    "velocity": 90
  },
  {
    "id": 3,
    "note": 69,
    "at": 320,
    "duration": 160,
    "velocity": 90
  },
  {
    "id": 4,
    "note": 73,
    "at": 480,
    "duration": 160,
    "velocity": 90
  },
  {
    "id": 5,
    "note": 76,
    "at": 640,
    "duration": 160,
    "velocity": 90
  },
  {
    "id": 6,
    "note": 78,
    "at": 800,
    "duration": 160,
    "velocity": 90
  },
  {
    "id": 7,
    "note": 80,
    "at": 960,
    "duration": 160,
    "velocity": 90
  },
  {
    "id": 8,
    "note": 75,
    "at": 1120,
    "duration": 160,
    "velocity": 90
  },
  {
    "id": 9,
    "note": 71,
    "at": 1280,
    "duration": 160,
    "velocity": 90
  },
  {
    "id": 10,
    "note": 68,
    "at": 1440,
    "duration": 160,
    "velocity": 90
  },
  {
    "id": 11,
    "note": 63,
    "at": 1600,
    "duration": 160,
    "velocity": 90
  },
  {
    "id": 12,
    "note": 59,
    "at": 1760,
    "duration": 160,
    "velocity": 90
  },
  {
    "id": 13,
    "note": 59,
    "at": 1760,
    "duration": 160,
    "velocity": 90
  },
  {
    "id": 14,
    "note": 57,
    "at": 1920,
    "duration": 160,
    "velocity": 90
  },
  {
    "id": 15,
    "note": 57,
    "at": 1920,
    "duration": 160,
    "velocity": 90
  },
  {
    "id": 16,
    "note": 61,
    "at": 2080,
    "duration": 160,
    "velocity": 90
  },
  {
    "id": 17,
    "note": 66,
    "at": 2240,
    "duration": 160,
    "velocity": 90
  },
  {
    "id": 18,
    "note": 69,
    "at": 2400,
    "duration": 160,
    "velocity": 90
  },
  {
    "id": 19,
    "note": 73,
    "at": 2560,
    "duration": 160,
    "velocity": 90
  },
  {
    "id": 20,
    "note": 75,
    "at": 2720,
    "duration": 160,
    "velocity": 90
  },
  {
    "id": 21,
    "note": 76,
    "at": 2880,
    "duration": 160,
    "velocity": 90
  },
  {
    "id": 22,
    "note": 71,
    "at": 3040,
    "duration": 160,
    "velocity": 90
  },
  {
    "id": 23,
    "note": 68,
    "at": 3200,
    "duration": 160,
    "velocity": 90
  },
  {
    "id": 24,
    "note": 64,
    "at": 3360,
    "duration": 160,
    "velocity": 90
  },
  {
    "id": 25,
    "note": 59,
    "at": 3520,
    "duration": 160,
    "velocity": 90
  },
  {
    "id": 26,
    "note": 56,
    "at": 3680,
    "duration": 160,
    "velocity": 90
  },
  {
    "id": 27,
    "note": 56,
    "at": 3680,
    "duration": 160,
    "velocity": 90
  },
  {
    "id": 28,
    "note": 54,
    "at": 3840,
    "duration": 960,
    "velocity": 90
  },
  {
    "id": 29,
    "note": 57,
    "at": 4000,
    "duration": 160,
    "velocity": 90
  },
  {
    "id": 30,
    "note": 61,
    "at": 4160,
    "duration": 480,
    "velocity": 90
  },
  {
    "id": 31,
    "note": 73,
    "at": 4320,
    "duration": 480,
    "velocity": 90
  },
  {
    "id": 32,
    "note": 66,
    "at": 4480,
    "duration": 160,
    "velocity": 90
  },
  {
    "id": 33,
    "note": 69,
    "at": 4640,
    "duration": 640,
    "velocity": 90
  },
  {
    "id": 34,
    "note": 52,
    "at": 4800,
    "duration": 960,
    "velocity": 90
  },
  {
    "id": 35,
    "note": 78,
    "at": 4800,
    "duration": 480,
    "velocity": 90
  },
  {
    "id": 36,
    "note": 57,
    "at": 4960,
    "duration": 160,
    "velocity": 90
  },
  {
    "id": 37,
    "note": 61,
    "at": 5120,
    "duration": 480,
    "velocity": 90
  },
  {
    "id": 38,
    "note": 73,
    "at": 5280,
    "duration": 960,
    "velocity": 90
  },
  {
    "id": 39,
    "note": 66,
    "at": 5440,
    "duration": 160,
    "velocity": 90
  },
  {
    "id": 40,
    "note": 69,
    "at": 5600,
    "duration": 640,
    "velocity": 90
  },
  {
    "id": 41,
    "note": 51,
    "at": 5760,
    "duration": 960,
    "velocity": 90
  },
  {
    "id": 42,
    "note": 57,
    "at": 5920,
    "duration": 160,
    "velocity": 90
  },
  {
    "id": 43,
    "note": 61,
    "at": 6080,
    "duration": 480,
    "velocity": 90
  },
  {
    "id": 44,
    "note": 73,
    "at": 6240,
    "duration": 480,
    "velocity": 90
  },
  {
    "id": 45,
    "note": 66,
    "at": 6400,
    "duration": 160,
    "velocity": 90
  },
  {
    "id": 46,
    "note": 69,
    "at": 6560,
    "duration": 640,
    "velocity": 90
  },
  {
    "id": 47,
    "note": 49,
    "at": 6720,
    "duration": 960,
    "velocity": 90
  },
  {
    "id": 48,
    "note": 78,
    "at": 6720,
    "duration": 480,
    "velocity": 90
  },
  {
    "id": 49,
    "note": 57,
    "at": 6880,
    "duration": 160,
    "velocity": 90
  },
  {
    "id": 50,
    "note": 64,
    "at": 7040,
    "duration": 480,
    "velocity": 90
  },
  {
    "id": 51,
    "note": 81,
    "at": 7200,
    "duration": 960,
    "velocity": 90
  },
  {
    "id": 52,
    "note": 69,
    "at": 7360,
    "duration": 160,
    "velocity": 90
  },
  {
    "id": 53,
    "note": 73,
    "at": 7520,
    "duration": 160,
    "velocity": 90
  },
  {
    "id": 54,
    "note": 47,
    "at": 7680,
    "duration": 160,
    "velocity": 90
  },
  {
    "id": 55,
    "note": 54,
    "at": 7840,
    "duration": 160,
    "velocity": 90
  },
  {
    "id": 56,
    "note": 57,
    "at": 8000,
    "duration": 160,
    "velocity": 90
  },
  {
    "id": 57,
    "note": 61,
    "at": 8160,
    "duration": 160,
    "velocity": 90
  },
  {
    "id": 58,
    "note": 81,
    "at": 8160,
    "duration": 1120,
    "velocity": 90
  },
  {
    "id": 59,
    "note": 63,
    "at": 8320,
    "duration": 160,
    "velocity": 90
  },
  {
    "id": 60,
    "note": 66,
    "at": 8480,
    "duration": 160,
    "velocity": 90
  },
  {
    "id": 61,
    "note": 69,
    "at": 8640,
    "duration": 160,
    "velocity": 90
  },
  {
    "id": 62,
    "note": 73,
    "at": 8800,
    "duration": 160,
    "velocity": 90
  },
  {
    "id": 63,
    "note": 75,
    "at": 8960,
    "duration": 160,
    "velocity": 90
  },
  {
    "id": 64,
    "note": 73,
    "at": 9120,
    "duration": 160,
    "velocity": 90
  },
  {
    "id": 65,
    "note": 71,
    "at": 9280,
    "duration": 160,
    "velocity": 90
  },
  {
    "id": 66,
    "note": 80,
    "at": 9280,
    "duration": 160,
    "velocity": 90
  },
  {
    "id": 67,
    "note": 69,
    "at": 9440,
    "duration": 160,
    "velocity": 90
  },
  {
    "id": 68,
    "note": 78,
    "at": 9440,
    "duration": 160,
    "velocity": 90
  },
  {
    "id": 69,
    "note": 40,
    "at": 9600,
    "duration": 240,
    "velocity": 90
  },
  {
    "id": 70,
    "note": 47,
    "at": 9840,
    "duration": 240,
    "velocity": 90
  },
  {
    "id": 71,
    "note": 52,
    "at": 10080,
    "duration": 240,
    "velocity": 90
  },
  {
    "id": 72,
    "note": 76,
    "at": 10080,
    "duration": 160,
    "velocity": 90
  },
  {
    "id": 73,
    "note": 78,
    "at": 10240,
    "duration": 160,
    "velocity": 90
  },
  {
    "id": 74,
    "note": 56,
    "at": 10320,
    "duration": 240,
    "velocity": 90
  },
  {
    "id": 75,
    "note": 73,
    "at": 10400,
    "duration": 160,
    "velocity": 90
  },
  {
    "id": 76,
    "note": 59,
    "at": 10560,
    "duration": 240,
    "velocity": 90
  },
  {
    "id": 77,
    "note": 76,
    "at": 10560,
    "duration": 160,
    "velocity": 90
  },
  {
    "id": 78,
    "note": 71,
    "at": 10720,
    "duration": 160,
    "velocity": 90
  },
  {
    "id": 79,
    "note": 56,
    "at": 10800,
    "duration": 240,
    "velocity": 90
  },
  {
    "id": 80,
    "note": 73,
    "at": 10880,
    "duration": 160,
    "velocity": 90
  },
  {
    "id": 81,
    "note": 52,
    "at": 11040,
    "duration": 240,
    "velocity": 90
  },
  {
    "id": 82,
    "note": 68,
    "at": 11040,
    "duration": 160,
    "velocity": 90
  },
  {
    "id": 83,
    "note": 71,
    "at": 11200,
    "duration": 160,
    "velocity": 90
  },
  {
    "id": 84,
    "note": 47,
    "at": 11280,
    "duration": 240,
    "velocity": 90
  },
  {
    "id": 85,
    "note": 66,
    "at": 11360,
    "duration": 160,
    "velocity": 90
  },
  {
    "id": 86,
    "note": 40,
    "at": 11520,
    "duration": 240,
    "velocity": 90
  },
  {
    "id": 87,
    "note": 68,
    "at": 11520,
    "duration": 160,
    "velocity": 90
  },
  {
    "id": 88,
    "note": 64,
    "at": 11680,
    "duration": 160,
    "velocity": 90
  },
  {
    "id": 89,
    "note": 49,
    "at": 11760,
    "duration": 240,
    "velocity": 90
  },
  {
    "id": 90,
    "note": 68,
    "at": 11840,
    "duration": 160,
    "velocity": 90
  },
  {
    "id": 91,
    "note": 52,
    "at": 12000,
    "duration": 240,
    "velocity": 90
  },
  {
    "id": 92,
    "note": 63,
    "at": 12000,
    "duration": 960,
    "velocity": 90
  },
  {
    "id": 93,
    "note": 56,
    "at": 12240,
    "duration": 240,
    "velocity": 90
  },
  {
    "id": 94,
    "note": 61,
    "at": 12480,
    "duration": 240,
    "velocity": 90
  },
  {
    "id": 95,
    "note": 56,
    "at": 12720,
    "duration": 240,
    "velocity": 90
  },
  {
    "id": 96,
    "note": 52,
    "at": 12960,
    "duration": 240,
    "velocity": 90
  },
  {
    "id": 97,
    "note": 61,
    "at": 12960,
    "duration": 480,
    "velocity": 90
  },
  {
    "id": 98,
    "note": 47,
    "at": 13200,
    "duration": 240,
    "velocity": 90
  },
  {
    "id": 99,
    "note": 40,
    "at": 13440,
    "duration": 240,
    "velocity": 90
  },
  {
    "id": 100,
    "note": 59,
    "at": 13440,
    "duration": 240,
    "velocity": 90
  },
  {
    "id": 101,
    "note": 47,
    "at": 13680,
    "duration": 240,
    "velocity": 90
  },
  {
    "id": 102,
    "note": 52,
    "at": 13920,
    "duration": 240,
    "velocity": 90
  },
  {
    "id": 103,
    "note": 76,
    "at": 13920,
    "duration": 160,
    "velocity": 90
  },
  {
    "id": 104,
    "note": 78,
    "at": 14080,
    "duration": 160,
    "velocity": 90
  },
  {
    "id": 105,
    "note": 56,
    "at": 14160,
    "duration": 240,
    "velocity": 90
  },
  {
    "id": 106,
    "note": 73,
    "at": 14240,
    "duration": 160,
    "velocity": 90
  },
  {
    "id": 107,
    "note": 59,
    "at": 14400,
    "duration": 240,
    "velocity": 90
  },
  {
    "id": 108,
    "note": 76,
    "at": 14400,
    "duration": 160,
    "velocity": 90
  },
  {
    "id": 109,
    "note": 71,
    "at": 14560,
    "duration": 160,
    "velocity": 90
  },
  {
    "id": 110,
    "note": 56,
    "at": 14640,
    "duration": 240,
    "velocity": 90
  },
  {
    "id": 111,
    "note": 73,
    "at": 14720,
    "duration": 160,
    "velocity": 90
  },
  {
    "id": 112,
    "note": 52,
    "at": 14880,
    "duration": 240,
    "velocity": 90
  },
  {
    "id": 113,
    "note": 68,
    "at": 14880,
    "duration": 160,
    "velocity": 90
  },
  {
    "id": 114,
    "note": 71,
    "at": 15040,
    "duration": 160,
    "velocity": 90
  },
  {
    "id": 115,
    "note": 47,
    "at": 15120,
    "duration": 240,
    "velocity": 90
  },
  {
    "id": 116,
    "note": 66,
    "at": 15200,
    "duration": 160,
    "velocity": 90
  },
  {
    "id": 117,
    "note": 40,
    "at": 15360,
    "duration": 240,
    "velocity": 90
  },
  {
    "id": 118,
    "note": 68,
    "at": 15360,
    "duration": 160,
    "velocity": 90
  },
  {
    "id": 119,
    "note": 64,
    "at": 15520,
    "duration": 160,
    "velocity": 90
  },
  {
    "id": 120,
    "note": 49,
    "at": 15600,
    "duration": 240,
    "velocity": 90
  },
  {
    "id": 121,
    "note": 68,
    "at": 15680,
    "duration": 160,
    "velocity": 90
  },
  {
    "id": 122,
    "note": 52,
    "at": 15840,
    "duration": 240,
    "velocity": 90
  },
  {
    "id": 123,
    "note": 63,
    "at": 15840,
    "duration": 960,
    "velocity": 90
  },
  {
    "id": 124,
    "note": 56,
    "at": 16080,
    "duration": 240,
    "velocity": 90
  },
  {
    "id": 125,
    "note": 61,
    "at": 16320,
    "duration": 240,
    "velocity": 90
  },
  {
    "id": 126,
    "note": 56,
    "at": 16560,
    "duration": 240,
    "velocity": 90
  },
  {
    "id": 127,
    "note": 52,
    "at": 16800,
    "duration": 240,
    "velocity": 90
  },
  {
    "id": 128,
    "note": 61,
    "at": 16800,
    "duration": 480,
    "velocity": 90
  },
  {
    "id": 129,
    "note": 47,
    "at": 17040,
    "duration": 240,
    "velocity": 90
  },
  {
    "id": 130,
    "note": 42,
    "at": 17280,
    "duration": 240,
    "velocity": 90
  },
  {
    "id": 131,
    "note": 59,
    "at": 17280,
    "duration": 160,
    "velocity": 90
  },
  {
    "id": 132,
    "note": 57,
    "at": 17440,
    "duration": 160,
    "velocity": 90
  },
  {
    "id": 133,
    "note": 49,
    "at": 17520,
    "duration": 240,
    "velocity": 90
  },
  {
    "id": 134,
    "note": 59,
    "at": 17600,
    "duration": 160,
    "velocity": 90
  },
  {
    "id": 135,
    "note": 52,
    "at": 17760,
    "duration": 240,
    "velocity": 90
  },
  {
    "id": 136,
    "note": 61,
    "at": 17760,
    "duration": 720,
    "velocity": 90
  },
  {
    "id": 137,
    "note": 54,
    "at": 18000,
    "duration": 240,
    "velocity": 90
  },
  {
    "id": 138,
    "note": 57,
    "at": 18240,
    "duration": 240,
    "velocity": 90
  },
  {
    "id": 139,
    "note": 54,
    "at": 18480,
    "duration": 240,
    "velocity": 90
  },
  {
    "id": 140,
    "note": 64,
    "at": 18480,
    "duration": 240,
    "velocity": 90
  },
  {
    "id": 141,
    "note": 52,
    "at": 18720,
    "duration": 240,
    "velocity": 90
  },
  {
    "id": 142,
    "note": 63,
    "at": 18720,
    "duration": 240,
    "velocity": 90
  },
  {
    "id": 143,
    "note": 49,
    "at": 18960,
    "duration": 240,
    "velocity": 90
  },
  {
    "id": 144,
    "note": 64,
    "at": 18960,
    "duration": 240,
    "velocity": 90
  },
  {
    "id": 145,
    "note": 44,
    "at": 19200,
    "duration": 240,
    "velocity": 90
  },
  {
    "id": 146,
    "note": 61,
    "at": 19200,
    "duration": 480,
    "velocity": 90
  },
  {
    "id": 147,
    "note": 49,
    "at": 19440,
    "duration": 240,
    "velocity": 90
  },
  {
    "id": 148,
    "note": 52,
    "at": 19680,
    "duration": 240,
    "velocity": 90
  },
  {
    "id": 149,
    "note": 68,
    "at": 19680,
    "duration": 960,
    "velocity": 90
  },
  {
    "id": 150,
    "note": 56,
    "at": 19920,
    "duration": 240,
    "velocity": 90
  },
  {
    "id": 151,
    "note": 59,
    "at": 20160,
    "duration": 240,
    "velocity": 90
  },
  {
    "id": 152,
    "note": 56,
    "at": 20400,
    "duration": 240,
    "velocity": 90
  },
  {
    "id": 153,
    "note": 52,
    "at": 20640,
    "duration": 240,
    "velocity": 90
  },
  {
    "id": 154,
    "note": 64,
    "at": 20640,
    "duration": 480,
    "velocity": 90
  },
  {
    "id": 155,
    "note": 49,
    "at": 20880,
    "duration": 240,
    "velocity": 90
  },
  {
    "id": 156,
    "note": 45,
    "at": 21120,
    "duration": 240,
    "velocity": 90
  },
  {
    "id": 157,
    "note": 63,
    "at": 21120,
    "duration": 160,
    "velocity": 90
  },
  {
    "id": 158,
    "note": 61,
    "at": 21280,
    "duration": 160,
    "velocity": 90
  },
  {
    "id": 159,
    "note": 52,
    "at": 21360,
    "duration": 240,
    "velocity": 90
  },
  {
    "id": 160,
    "note": 63,
    "at": 21440,
    "duration": 160,
    "velocity": 90
  },
  {
    "id": 161,
    "note": 54,
    "at": 21600,
    "duration": 240,
    "velocity": 90
  },
  {
    "id": 162,
    "note": 64,
    "at": 21600,
    "duration": 720,
    "velocity": 90
  },
  {
    "id": 163,
    "note": 57,
    "at": 21840,
    "duration": 240,
    "velocity": 90
  },
  {
    "id": 164,
    "note": 61,
    "at": 22080,
    "duration": 240,
    "velocity": 90
  },
  {
    "id": 165,
    "note": 57,
    "at": 22320,
    "duration": 240,
    "velocity": 90
  },
  {
    "id": 166,
    "note": 68,
    "at": 22320,
    "duration": 240,
    "velocity": 90
  },
  {
    "id": 167,
    "note": 54,
    "at": 22560,
    "duration": 240,
    "velocity": 90
  },
  {
    "id": 168,
    "note": 66,
    "at": 22560,
    "duration": 240,
    "velocity": 90
  },
  {
    "id": 169,
    "note": 52,
    "at": 22800,
    "duration": 240,
    "velocity": 90
  },
  {
    "id": 170,
    "note": 68,
    "at": 22800,
    "duration": 240,
    "velocity": 90
  },
  {
    "id": 171,
    "note": 46,
    "at": 23040,
    "duration": 240,
    "velocity": 90
  },
  {
    "id": 172,
    "note": 64,
    "at": 23040,
    "duration": 480,
    "velocity": 90
  },
  {
    "id": 173,
    "note": 52,
    "at": 23280,
    "duration": 240,
    "velocity": 90
  },
  {
    "id": 174,
    "note": 56,
    "at": 23520,
    "duration": 240,
    "velocity": 90
  },
  {
    "id": 175,
    "note": 73,
    "at": 23520,
    "duration": 960,
    "velocity": 90
  },
  {
    "id": 176,
    "note": 61,
    "at": 23760,
    "duration": 240,
    "velocity": 90
  },
  {
    "id": 177,
    "note": 49,
    "at": 24000,
    "duration": 240,
    "velocity": 90
  },
  {
    "id": 178,
    "note": 54,
    "at": 24240,
    "duration": 240,
    "velocity": 90
  },
  {
    "id": 179,
    "note": 58,
    "at": 24480,
    "duration": 240,
    "velocity": 90
  },
  {
    "id": 180,
    "note": 70,
    "at": 24480,
    "duration": 160,
    "velocity": 90
  },
  {
    "id": 181,
    "note": 73,
    "at": 24640,
    "duration": 160,
    "velocity": 90
  },
  {
    "id": 182,
    "note": 64,
    "at": 24720,
    "duration": 240,
    "velocity": 90
  },
  {
    "id": 183,
    "note": 70,
    "at": 24800,
    "duration": 160,
    "velocity": 90
  },
  {
    "id": 184,
    "note": 52,
    "at": 24960,
    "duration": 240,
    "velocity": 90
  },
  {
    "id": 185,
    "note": 68,
    "at": 24960,
    "duration": 480,
    "velocity": 90
  },
  {
    "id": 186,
    "note": 58,
    "at": 25200,
    "duration": 240,
    "velocity": 90
  },
  {
    "id": 187,
    "note": 61,
    "at": 25440,
    "duration": 240,
    "velocity": 90
  },
  {
    "id": 188,
    "note": 76,
    "at": 25440,
    "duration": 960,
    "velocity": 90
  },
  {
    "id": 189,
    "note": 68,
    "at": 25680,
    "duration": 240,
    "velocity": 90
  },
  {
    "id": 190,
    "note": 54,
    "at": 25920,
    "duration": 240,
    "velocity": 90
  },
  {
    "id": 191,
    "note": 61,
    "at": 26160,
    "duration": 240,
    "velocity": 90
  },
  {
    "id": 192,
    "note": 64,
    "at": 26400,
    "duration": 240,
    "velocity": 90
  },
  {
    "id": 193,
    "note": 73,
    "at": 26400,
    "duration": 160,
    "velocity": 90
  },
  {
    "id": 194,
    "note": 76,
    "at": 26560,
    "duration": 160,
    "velocity": 90
  },
  {
    "id": 195,
    "note": 70,
    "at": 26640,
    "duration": 240,
    "velocity": 90
  },
  {
    "id": 196,
    "note": 73,
    "at": 26720,
    "duration": 160,
    "velocity": 90
  },
  {
    "id": 197,
    "note": 58,
    "at": 26880,
    "duration": 240,
    "velocity": 90
  },
  {
    "id": 198,
    "note": 80,
    "at": 26880,
    "duration": 720,
    "velocity": 90
  },
  {
    "id": 199,
    "note": 64,
    "at": 27120,
    "duration": 240,
    "velocity": 90
  },
  {
    "id": 200,
    "note": 68,
    "at": 27360,
    "duration": 240,
    "velocity": 90
  },
  {
    "id": 201,
    "note": 73,
    "at": 27600,
    "duration": 240,
    "velocity": 90
  },
  {
    "id": 202,
    "note": 78,
    "at": 27600,
    "duration": 240,
    "velocity": 90
  },
  {
    "id": 203,
    "note": 61,
    "at": 27840,
    "duration": 240,
    "velocity": 90
  },
  {
    "id": 204,
    "note": 80,
    "at": 27840,
    "duration": 720,
    "velocity": 90
  },
  {
    "id": 205,
    "note": 66,
    "at": 28080,
    "duration": 240,
    "velocity": 90
  },
  {
    "id": 206,
    "note": 70,
    "at": 28320,
    "duration": 240,
    "velocity": 90
  },
  {
    "id": 207,
    "note": 76,
    "at": 28560,
    "duration": 240,
    "velocity": 90
  },
  {
    "id": 208,
    "note": 78,
    "at": 28560,
    "duration": 240,
    "velocity": 90
  },
  {
    "id": 209,
    "note": 58,
    "at": 28800,
    "duration": 240,
    "velocity": 90
  },
  {
    "id": 210,
    "note": 80,
    "at": 28800,
    "duration": 720,
    "velocity": 90
  },
  {
    "id": 211,
    "note": 64,
    "at": 29040,
    "duration": 240,
    "velocity": 90
  },
  {
    "id": 212,
    "note": 68,
    "at": 29280,
    "duration": 240,
    "velocity": 90
  },
  {
    "id": 213,
    "note": 73,
    "at": 29520,
    "duration": 240,
    "velocity": 90
  },
  {
    "id": 214,
    "note": 78,
    "at": 29520,
    "duration": 240,
    "velocity": 90
  },
  {
    "id": 215,
    "note": 61,
    "at": 29760,
    "duration": 240,
    "velocity": 90
  },
  {
    "id": 216,
    "note": 80,
    "at": 29760,
    "duration": 240,
    "velocity": 90
  },
  {
    "id": 217,
    "note": 66,
    "at": 30000,
    "duration": 240,
    "velocity": 90
  },
  {
    "id": 218,
    "note": 78,
    "at": 30000,
    "duration": 480,
    "velocity": 90
  },
  {
    "id": 219,
    "note": 70,
    "at": 30240,
    "duration": 240,
    "velocity": 90
  },
  {
    "id": 220,
    "note": 76,
    "at": 30480,
    "duration": 240,
    "velocity": 90
  },
  {
    "id": 221,
    "note": 80,
    "at": 30480,
    "duration": 240,
    "velocity": 90
  },
  {
    "id": 222,
    "note": 61,
    "at": 30720,
    "duration": 160,
    "velocity": 90
  },
  {
    "id": 223,
    "note": 81,
    "at": 30720,
    "duration": 960,
    "velocity": 90
  },
  {
    "id": 224,
    "note": 64,
    "at": 30880,
    "duration": 160,
    "velocity": 90
  },
  {
    "id": 225,
    "note": 69,
    "at": 31040,
    "duration": 160,
    "velocity": 90
  },
  {
    "id": 226,
    "note": 73,
    "at": 31200,
    "duration": 160,
    "velocity": 90
  },
  {
    "id": 227,
    "note": 76,
    "at": 31360,
    "duration": 160,
    "velocity": 90
  },
  {
    "id": 228,
    "note": 78,
    "at": 31520,
    "duration": 160,
    "velocity": 90
  },
  {
    "id": 229,
    "note": 80,
    "at": 31680,
    "duration": 960,
    "velocity": 90
  },
  {
    "id": 230,
    "note": 75,
    "at": 31840,
    "duration": 160,
    "velocity": 90
  },
  {
    "id": 231,
    "note": 71,
    "at": 32000,
    "duration": 160,
    "velocity": 90
  },
  {
    "id": 232,
    "note": 68,
    "at": 32160,
    "duration": 160,
    "velocity": 90
  },
  {
    "id": 233,
    "note": 63,
    "at": 32320,
    "duration": 160,
    "velocity": 90
  },
  {
    "id": 234,
    "note": 59,
    "at": 32480,
    "duration": 160,
    "velocity": 90
  },
  {
    "id": 235,
    "note": 57,
    "at": 32640,
    "duration": 160,
    "velocity": 90
  },
  {
    "id": 236,
    "note": 78,
    "at": 32640,
    "duration": 960,
    "velocity": 90
  },
  {
    "id": 237,
    "note": 61,
    "at": 32800,
    "duration": 160,
    "velocity": 90
  },
  {
    "id": 238,
    "note": 66,
    "at": 32960,
    "duration": 160,
    "velocity": 90
  },
  {
    "id": 239,
    "note": 69,
    "at": 33120,
    "duration": 160,
    "velocity": 90
  },
  {
    "id": 240,
    "note": 73,
    "at": 33280,
    "duration": 160,
    "velocity": 90
  },
  {
    "id": 241,
    "note": 75,
    "at": 33440,
    "duration": 160,
    "velocity": 90
  },
  {
    "id": 242,
    "note": 76,
    "at": 33600,
    "duration": 960,
    "velocity": 90
  },
  {
    "id": 243,
    "note": 71,
    "at": 33760,
    "duration": 160,
    "velocity": 90
  },
  {
    "id": 244,
    "note": 68,
    "at": 33920,
    "duration": 160,
    "velocity": 90
  },
  {
    "id": 245,
    "note": 64,
    "at": 34080,
    "duration": 160,
    "velocity": 90
  },
  {
    "id": 246,
    "note": 59,
    "at": 34240,
    "duration": 160,
    "velocity": 90
  },
  {
    "id": 247,
    "note": 56,
    "at": 34400,
    "duration": 160,
    "velocity": 90
  },
  {
    "id": 248,
    "note": 55,
    "at": 34560,
    "duration": 160,
    "velocity": 90
  },
  {
    "id": 249,
    "note": 75,
    "at": 34560,
    "duration": 960,
    "velocity": 90
  },
  {
    "id": 250,
    "note": 61,
    "at": 34720,
    "duration": 160,
    "velocity": 90
  },
  {
    "id": 251,
    "note": 63,
    "at": 34880,
    "duration": 160,
    "velocity": 90
  },
  {
    "id": 252,
    "note": 70,
    "at": 35040,
    "duration": 160,
    "velocity": 90
  },
  {
    "id": 253,
    "note": 63,
    "at": 35200,
    "duration": 160,
    "velocity": 90
  },
  {
    "id": 254,
    "note": 61,
    "at": 35360,
    "duration": 160,
    "velocity": 90
  },
  {
    "id": 255,
    "note": 56,
    "at": 35520,
    "duration": 160,
    "velocity": 90
  },
  {
    "id": 256,
    "note": 76,
    "at": 35520,
    "duration": 480,
    "velocity": 90
  },
  {
    "id": 257,
    "note": 61,
    "at": 35680,
    "duration": 160,
    "velocity": 90
  },
  {
    "id": 258,
    "note": 64,
    "at": 35840,
    "duration": 160,
    "velocity": 90
  },
  {
    "id": 259,
    "note": 71,
    "at": 36000,
    "duration": 160,
    "velocity": 90
  },
  {
    "id": 260,
    "note": 80,
    "at": 36000,
    "duration": 240,
    "velocity": 90
  },
  {
    "id": 261,
    "note": 64,
    "at": 36160,
    "duration": 160,
    "velocity": 90
  },
  {
    "id": 262,
    "note": 83,
    "at": 36240,
    "duration": 240,
    "velocity": 90
  },
  {
    "id": 263,
    "note": 61,
    "at": 36320,
    "duration": 160,
    "velocity": 90
  },
  {
    "id": 264,
    "note": 55,
    "at": 36480,
    "duration": 160,
    "velocity": 90
  },
  {
    "id": 265,
    "note": 75,
    "at": 36480,
    "duration": 1200,
    "velocity": 90
  },
  {
    "id": 266,
    "note": 61,
    "at": 36640,
    "duration": 160,
    "velocity": 90
  },
  {
    "id": 267,
    "note": 63,
    "at": 36800,
    "duration": 160,
    "velocity": 90
  },
  {
    "id": 268,
    "note": 70,
    "at": 36960,
    "duration": 160,
    "velocity": 90
  },
  {
    "id": 269,
    "note": 63,
    "at": 37120,
    "duration": 160,
    "velocity": 90
  },
  {
    "id": 270,
    "note": 61,
    "at": 37280,
    "duration": 160,
    "velocity": 90
  },
  {
    "id": 271,
    "note": 52,
    "at": 37440,
    "duration": 160,
    "velocity": 90
  },
  {
    "id": 272,
    "note": 57,
    "at": 37600,
    "duration": 160,
    "velocity": 90
  },
  {
    "id": 273,
    "note": 73,
    "at": 37680,
    "duration": 240,
    "velocity": 90
  },
  {
    "id": 274,
    "note": 61,
    "at": 37760,
    "duration": 160,
    "velocity": 90
  },
  {
    "id": 275,
    "note": 68,
    "at": 37920,
    "duration": 160,
    "velocity": 90
  },
  {
    "id": 276,
    "note": 76,
    "at": 37920,
    "duration": 240,
    "velocity": 90
  },
  {
    "id": 277,
    "note": 61,
    "at": 38080,
    "duration": 160,
    "velocity": 90
  },
  {
    "id": 278,
    "note": 80,
    "at": 38160,
    "duration": 240,
    "velocity": 90
  },
  {
    "id": 279,
    "note": 57,
    "at": 38240,
    "duration": 160,
    "velocity": 90
  },
  {
    "id": 280,
    "note": 51,
    "at": 38400,
    "duration": 160,
    "velocity": 90
  },
  {
    "id": 281,
    "note": 71,
    "at": 38400,
    "duration": 1200,
    "velocity": 90
  },
  {
    "id": 282,
    "note": 57,
    "at": 38560,
    "duration": 160,
    "velocity": 90
  },
  {
    "id": 283,
    "note": 59,
    "at": 38720,
    "duration": 160,
    "velocity": 90
  },
  {
    "id": 284,
    "note": 66,
    "at": 38880,
    "duration": 160,
    "velocity": 90
  },
  {
    "id": 285,
    "note": 59,
    "at": 39040,
    "duration": 160,
    "velocity": 90
  },
  {
    "id": 286,
    "note": 57,
    "at": 39200,
    "duration": 160,
    "velocity": 90
  },
  {
    "id": 287,
    "note": 49,
    "at": 39360,
    "duration": 160,
    "velocity": 90
  },
  {
    "id": 288,
    "note": 54,
    "at": 39520,
    "duration": 160,
    "velocity": 90
  },
  {
    "id": 289,
    "note": 69,
    "at": 39600,
    "duration": 240,
    "velocity": 90
  },
  {
    "id": 290,
    "note": 57,
    "at": 39680,
    "duration": 160,
    "velocity": 90
  },
  {
    "id": 291,
    "note": 64,
    "at": 39840,
    "duration": 160,
    "velocity": 90
  },
  {
    "id": 292,
    "note": 73,
    "at": 39840,
    "duration": 240,
    "velocity": 90
  },
  {
    "id": 293,
    "note": 57,
    "at": 40000,
    "duration": 160,
    "velocity": 90
  },
  {
    "id": 294,
    "note": 76,
    "at": 40080,
    "duration": 240,
    "velocity": 90
  },
  {
    "id": 295,
    "note": 54,
    "at": 40160,
    "duration": 160,
    "velocity": 90
  },
  {
    "id": 296,
    "note": 48,
    "at": 40320,
    "duration": 160,
    "velocity": 90
  },
  {
    "id": 297,
    "note": 68,
    "at": 40320,
    "duration": 960,
    "velocity": 90
  },
  {
    "id": 298,
    "note": 54,
    "at": 40480,
    "duration": 160,
    "velocity": 90
  },
  {
    "id": 299,
    "note": 56,
    "at": 40640,
    "duration": 160,
    "velocity": 90
  },
  {
    "id": 300,
    "note": 63,
    "at": 40800,
    "duration": 160,
    "velocity": 90
  },
  {
    "id": 301,
    "note": 56,
    "at": 40960,
    "duration": 160,
    "velocity": 90
  },
  {
    "id": 302,
    "note": 54,
    "at": 41120,
    "duration": 160,
    "velocity": 90
  },
  {
    "id": 303,
    "note": 49,
    "at": 41280,
    "duration": 160,
    "velocity": 90
  },
  {
    "id": 304,
    "note": 54,
    "at": 41440,
    "duration": 160,
    "velocity": 90
  },
  {
    "id": 305,
    "note": 69,
    "at": 41440,
    "duration": 160,
    "velocity": 90
  },
  {
    "id": 306,
    "note": 57,
    "at": 41600,
    "duration": 160,
    "velocity": 90
  },
  {
    "id": 307,
    "note": 73,
    "at": 41600,
    "duration": 160,
    "velocity": 90
  },
  {
    "id": 308,
    "note": 64,
    "at": 41760,
    "duration": 160,
    "velocity": 90
  },
  {
    "id": 309,
    "note": 76,
    "at": 41760,
    "duration": 160,
    "velocity": 90
  },
  {
    "id": 310,
    "note": 57,
    "at": 41920,
    "duration": 160,
    "velocity": 90
  },
  {
    "id": 311,
    "note": 80,
    "at": 41920,
    "duration": 160,
    "velocity": 90
  },
  {
    "id": 312,
    "note": 54,
    "at": 42080,
    "duration": 160,
    "velocity": 90
  },
  {
    "id": 313,
    "note": 78,
    "at": 42080,
    "duration": 160,
    "velocity": 90
  },
  {
    "id": 314,
    "note": 48,
    "at": 42240,
    "duration": 160,
    "velocity": 90
  },
  {
    "id": 315,
    "note": 75,
    "at": 42240,
    "duration": 480,
    "velocity": 90
  },
  {
    "id": 316,
    "note": 54,
    "at": 42400,
    "duration": 160,
    "velocity": 90
  },
  {
    "id": 317,
    "note": 56,
    "at": 42560,
    "duration": 160,
    "velocity": 90
  },
  {
    "id": 318,
    "note": 63,
    "at": 42720,
    "duration": 160,
    "velocity": 90
  },
  {
    "id": 319,
    "note": 68,
    "at": 42720,
    "duration": 480,
    "velocity": 90
  },
  {
    "id": 320,
    "note": 56,
    "at": 42880,
    "duration": 160,
    "velocity": 90
  },
  {
    "id": 321,
    "note": 54,
    "at": 43040,
    "duration": 160,
    "velocity": 90
  },
  {
    "id": 322,
    "note": 47,
    "at": 43200,
    "duration": 160,
    "velocity": 90
  },
  {
    "id": 323,
    "note": 54,
    "at": 43360,
    "duration": 160,
    "velocity": 90
  },
  {
    "id": 324,
    "note": 66,
    "at": 43440,
    "duration": 240,
    "velocity": 90
  },
  {
    "id": 325,
    "note": 57,
    "at": 43520,
    "duration": 160,
    "velocity": 90
  },
  {
    "id": 326,
    "note": 62,
    "at": 43680,
    "duration": 160,
    "velocity": 90
  },
  {
    "id": 327,
    "note": 69,
    "at": 43680,
    "duration": 240,
    "velocity": 90
  },
  {
    "id": 328,
    "note": 57,
    "at": 43840,
    "duration": 160,
    "velocity": 90
  },
  {
    "id": 329,
    "note": 73,
    "at": 43920,
    "duration": 240,
    "velocity": 90
  },
  {
    "id": 330,
    "note": 54,
    "at": 44000,
    "duration": 160,
    "velocity": 90
  },
  {
    "id": 331,
    "note": 47,
    "at": 44160,
    "duration": 160,
    "velocity": 90
  },
  {
    "id": 332,
    "note": 64,
    "at": 44160,
    "duration": 960,
    "velocity": 90
  },
  {
    "id": 333,
    "note": 52,
    "at": 44320,
    "duration": 160,
    "velocity": 90
  },
  {
    "id": 334,
    "note": 56,
    "at": 44480,
    "duration": 160,
    "velocity": 90
  },
  {
    "id": 335,
    "note": 62,
    "at": 44640,
    "duration": 160,
    "velocity": 90
  },
  {
    "id": 336,
    "note": 56,
    "at": 44800,
    "duration": 160,
    "velocity": 90
  },
  {
    "id": 337,
    "note": 52,
    "at": 44960,
    "duration": 160,
    "velocity": 90
  },
  {
    "id": 338,
    "note": 47,
    "at": 45120,
    "duration": 160,
    "velocity": 90
  },
  {
    "id": 339,
    "note": 54,
    "at": 45280,
    "duration": 160,
    "velocity": 90
  },
  {
    "id": 340,
    "note": 66,
    "at": 45280,
    "duration": 160,
    "velocity": 90
  },
  {
    "id": 341,
    "note": 57,
    "at": 45440,
    "duration": 160,
    "velocity": 90
  },
  {
    "id": 342,
    "note": 69,
    "at": 45440,
    "duration": 160,
    "velocity": 90
  },
  {
    "id": 343,
    "note": 62,
    "at": 45600,
    "duration": 160,
    "velocity": 90
  },
  {
    "id": 344,
    "note": 73,
    "at": 45600,
    "duration": 160,
    "velocity": 90
  },
  {
    "id": 345,
    "note": 57,
    "at": 45760,
    "duration": 160,
    "velocity": 90
  },
  {
    "id": 346,
    "note": 76,
    "at": 45760,
    "duration": 160,
    "velocity": 90
  },
  {
    "id": 347,
    "note": 54,
    "at": 45920,
    "duration": 160,
    "velocity": 90
  },
  {
    "id": 348,
    "note": 74,
    "at": 45920,
    "duration": 160,
    "velocity": 90
  },
  {
    "id": 349,
    "note": 47,
    "at": 46080,
    "duration": 160,
    "velocity": 90
  },
  {
    "id": 350,
    "note": 68,
    "at": 46080,
    "duration": 480,
    "velocity": 90
  },
  {
    "id": 351,
    "note": 52,
    "at": 46240,
    "duration": 160,
    "velocity": 90
  },
  {
    "id": 352,
    "note": 56,
    "at": 46400,
    "duration": 160,
    "velocity": 90
  },
  {
    "id": 353,
    "note": 62,
    "at": 46560,
    "duration": 160,
    "velocity": 90
  },
  {
    "id": 354,
    "note": 66,
    "at": 46560,
    "duration": 960,
    "velocity": 90
  },
  {
    "id": 355,
    "note": 56,
    "at": 46720,
    "duration": 160,
    "velocity": 90
  },
  {
    "id": 356,
    "note": 52,
    "at": 46880,
    "duration": 160,
    "velocity": 90
  },
  {
    "id": 357,
    "note": 40,
    "at": 47040,
    "duration": 160,
    "velocity": 90
  },
  {
    "id": 358,
    "note": 47,
    "at": 47200,
    "duration": 160,
    "velocity": 90
  },
  {
    "id": 359,
    "note": 52,
    "at": 47360,
    "duration": 160,
    "velocity": 90
  },
  {
    "id": 360,
    "note": 54,
    "at": 47520,
    "duration": 160,
    "velocity": 90
  },
  {
    "id": 361,
    "note": 62,
    "at": 47520,
    "duration": 480,
    "velocity": 90
  },
  {
    "id": 362,
    "note": 56,
    "at": 47680,
    "duration": 160,
    "velocity": 90
  },
  {
    "id": 363,
    "note": 59,
    "at": 47840,
    "duration": 160,
    "velocity": 90
  },
  {
    "id": 364,
    "note": 33,
    "at": 48000,
    "duration": 160,
    "velocity": 90
  },
  {
    "id": 365,
    "note": 61,
    "at": 48000,
    "duration": 2400,
    "velocity": 90
  },
  {
    "id": 366,
    "note": 45,
    "at": 48160,
    "duration": 3680,
    "velocity": 90
  },
  {
    "id": 367,
    "note": 52,
    "at": 48320,
    "duration": 160,
    "velocity": 90
  },
  {
    "id": 368,
    "note": 55,
    "at": 48480,
    "duration": 160,
    "velocity": 90
  },
  {
    "id": 369,
    "note": 57,
    "at": 48640,
    "duration": 160,
    "velocity": 90
  },
  {
    "id": 370,
    "note": 59,
    "at": 48800,
    "duration": 160,
    "velocity": 90
  },
  {
    "id": 371,
    "note": 57,
    "at": 48960,
    "duration": 160,
    "velocity": 90
  },
  {
    "id": 372,
    "note": 52,
    "at": 49120,
    "duration": 160,
    "velocity": 90
  },
  {
    "id": 373,
    "note": 55,
    "at": 49280,
    "duration": 160,
    "velocity": 90
  },
  {
    "id": 374,
    "note": 57,
    "at": 49440,
    "duration": 160,
    "velocity": 90
  },
  {
    "id": 375,
    "note": 59,
    "at": 49600,
    "duration": 160,
    "velocity": 90
  },
  {
    "id": 376,
    "note": 57,
    "at": 49760,
    "duration": 160,
    "velocity": 90
  },
  {
    "id": 377,
    "note": 55,
    "at": 49920,
    "duration": 1920,
    "velocity": 90
  },
  {
    "id": 378,
    "note": 61,
    "at": 50400,
    "duration": 480,
    "velocity": 90
  },
  {
    "id": 379,
    "note": 64,
    "at": 50880,
    "duration": 480,
    "velocity": 90
  },
  {
    "id": 380,
    "note": 61,
    "at": 51360,
    "duration": 480,
    "velocity": 90
  },
  {
    "id": 381,
    "note": 38,
    "at": 51840,
    "duration": 240,
    "velocity": 90
  },
  {
    "id": 382,
    "note": 66,
    "at": 51840,
    "duration": 2400,
    "velocity": 90
  },
  {
    "id": 383,
    "note": 45,
    "at": 52080,
    "duration": 240,
    "velocity": 90
  },
  {
    "id": 384,
    "note": 54,
    "at": 52320,
    "duration": 1440,
    "velocity": 90
  },
  {
    "id": 385,
    "note": 57,
    "at": 52320,
    "duration": 160,
    "velocity": 90
  },
  {
    "id": 386,
    "note": 59,
    "at": 52480,
    "duration": 160,
    "velocity": 90
  },
  {
    "id": 387,
    "note": 61,
    "at": 52640,
    "duration": 160,
    "velocity": 90
  },
  {
    "id": 388,
    "note": 59,
    "at": 52800,
    "duration": 160,
    "velocity": 90
  },
  {
    "id": 389,
    "note": 57,
    "at": 52960,
    "duration": 160,
    "velocity": 90
  },
  {
    "id": 390,
    "note": 59,
    "at": 53120,
    "duration": 160,
    "velocity": 90
  },
  {
    "id": 391,
    "note": 61,
    "at": 53280,
    "duration": 160,
    "velocity": 90
  },
  {
    "id": 392,
    "note": 59,
    "at": 53440,
    "duration": 160,
    "velocity": 90
  },
  {
    "id": 393,
    "note": 57,
    "at": 53600,
    "duration": 160,
    "velocity": 90
  },
  {
    "id": 394,
    "note": 35,
    "at": 53760,
    "duration": 240,
    "velocity": 90
  },
  {
    "id": 395,
    "note": 61,
    "at": 53760,
    "duration": 960,
    "velocity": 90
  },
  {
    "id": 396,
    "note": 47,
    "at": 54000,
    "duration": 240,
    "velocity": 90
  },
  {
    "id": 397,
    "note": 54,
    "at": 54240,
    "duration": 240,
    "velocity": 90
  },
  {
    "id": 398,
    "note": 66,
    "at": 54240,
    "duration": 480,
    "velocity": 90
  },
  {
    "id": 399,
    "note": 57,
    "at": 54480,
    "duration": 240,
    "velocity": 90
  },
  {
    "id": 400,
    "note": 59,
    "at": 54720,
    "duration": 480,
    "velocity": 90
  },
  {
    "id": 401,
    "note": 63,
    "at": 54720,
    "duration": 1920,
    "velocity": 90
  },
  {
    "id": 402,
    "note": 69,
    "at": 54720,
    "duration": 480,
    "velocity": 90
  },
  {
    "id": 403,
    "note": 66,
    "at": 55200,
    "duration": 480,
    "velocity": 90
  },
  {
    "id": 404,
    "note": 32,
    "at": 55680,
    "duration": 240,
    "velocity": 90
  },
  {
    "id": 405,
    "note": 71,
    "at": 55680,
    "duration": 480,
    "velocity": 90
  },
  {
    "id": 406,
    "note": 44,
    "at": 55920,
    "duration": 240,
    "velocity": 90
  },
  {
    "id": 407,
    "note": 52,
    "at": 56160,
    "duration": 240,
    "velocity": 90
  },
  {
    "id": 408,
    "note": 68,
    "at": 56160,
    "duration": 480,
    "velocity": 90
  },
  {
    "id": 409,
    "note": 56,
    "at": 56400,
    "duration": 240,
    "velocity": 90
  },
  {
    "id": 410,
    "note": 59,
    "at": 56640,
    "duration": 480,
    "velocity": 90
  },
  {
    "id": 411,
    "note": 64,
    "at": 56640,
    "duration": 960,
    "velocity": 90
  },
  {
    "id": 412,
    "note": 71,
    "at": 56640,
    "duration": 480,
    "velocity": 90
  },
  {
    "id": 413,
    "note": 68,
    "at": 57120,
    "duration": 480,
    "velocity": 90
  },
  {
    "id": 414,
    "note": 30,
    "at": 57600,
    "duration": 160,
    "velocity": 90
  },
  {
    "id": 415,
    "note": 69,
    "at": 57600,
    "duration": 2400,
    "velocity": 90
  },
  {
    "id": 416,
    "note": 73,
    "at": 57600,
    "duration": 2400,
    "velocity": 90
  },
  {
    "id": 417,
    "note": 42,
    "at": 57760,
    "duration": 160,
    "velocity": 90
  },
  {
    "id": 418,
    "note": 49,
    "at": 57920,
    "duration": 160,
    "velocity": 90
  },
  {
    "id": 419,
    "note": 52,
    "at": 58080,
    "duration": 160,
    "velocity": 90
  },
  {
    "id": 420,
    "note": 54,
    "at": 58240,
    "duration": 160,
    "velocity": 90
  },
  {
    "id": 421,
    "note": 57,
    "at": 58400,
    "duration": 160,
    "velocity": 90
  },
  {
    "id": 422,
    "note": 61,
    "at": 58560,
    "duration": 160,
    "velocity": 90
  },
  {
    "id": 423,
    "note": 64,
    "at": 58720,
    "duration": 160,
    "velocity": 90
  },
  {
    "id": 424,
    "note": 66,
    "at": 58880,
    "duration": 160,
    "velocity": 90
  },
  {
    "id": 425,
    "note": 68,
    "at": 59200,
    "duration": 160,
    "velocity": 90
  },
  {
    "id": 426,
    "note": 66,
    "at": 59360,
    "duration": 160,
    "velocity": 90
  },
  {
    "id": 427,
    "note": 64,
    "at": 59520,
    "duration": 960,
    "velocity": 90
  },
  {
    "id": 428,
    "note": 66,
    "at": 60000,
    "duration": 480,
    "velocity": 90
  },
  {
    "id": 429,
    "note": 69,
    "at": 60000,
    "duration": 480,
    "velocity": 90
  },
  {
    "id": 430,
    "note": 63,
    "at": 60480,
    "duration": 480,
    "velocity": 90
  },
  {
    "id": 431,
    "note": 68,
    "at": 60480,
    "duration": 480,
    "velocity": 90
  },
  {
    "id": 432,
    "note": 71,
    "at": 60480,
    "duration": 480,
    "velocity": 90
  },
  {
    "id": 433,
    "note": 61,
    "at": 60960,
    "duration": 480,
    "velocity": 90
  },
  {
    "id": 434,
    "note": 69,
    "at": 60960,
    "duration": 480,
    "velocity": 90
  },
  {
    "id": 435,
    "note": 73,
    "at": 60960,
    "duration": 480,
    "velocity": 90
  },
  {
    "id": 436,
    "note": 30,
    "at": 61440,
    "duration": 160,
    "velocity": 90
  },
  {
    "id": 437,
    "note": 69,
    "at": 61440,
    "duration": 2400,
    "velocity": 90
  },
  {
    "id": 438,
    "note": 73,
    "at": 61440,
    "duration": 2400,
    "velocity": 90
  },
  {
    "id": 439,
    "note": 42,
    "at": 61600,
    "duration": 160,
    "velocity": 90
  },
  {
    "id": 440,
    "note": 49,
    "at": 61760,
    "duration": 160,
    "velocity": 90
  },
  {
    "id": 441,
    "note": 52,
    "at": 61920,
    "duration": 160,
    "velocity": 90
  },
  {
    "id": 442,
    "note": 54,
    "at": 62080,
    "duration": 160,
    "velocity": 90
  },
  {
    "id": 443,
    "note": 57,
    "at": 62240,
    "duration": 160,
    "velocity": 90
  },
  {
    "id": 444,
    "note": 61,
    "at": 62400,
    "duration": 160,
    "velocity": 90
  },
  {
    "id": 445,
    "note": 64,
    "at": 62560,
    "duration": 160,
    "velocity": 90
  },
  {
    "id": 446,
    "note": 66,
    "at": 62720,
    "duration": 160,
    "velocity": 90
  },
  {
    "id": 447,
    "note": 68,
    "at": 63040,
    "duration": 160,
    "velocity": 90
  },
  {
    "id": 448,
    "note": 66,
    "at": 63200,
    "duration": 160,
    "velocity": 90
  },
  {
    "id": 449,
    "note": 64,
    "at": 63360,
    "duration": 960,
    "velocity": 90
  },
  {
    "id": 450,
    "note": 66,
    "at": 63840,
    "duration": 160,
    "velocity": 90
  },
  {
    "id": 451,
    "note": 69,
    "at": 63840,
    "duration": 480,
    "velocity": 90
  },
  {
    "id": 452,
    "note": 61,
    "at": 64000,
    "duration": 160,
    "velocity": 90
  },
  {
    "id": 453,
    "note": 54,
    "at": 64320,
    "duration": 960,
    "velocity": 90
  },
  {
    "id": 454,
    "note": 68,
    "at": 64320,
    "duration": 160,
    "velocity": 90
  },
  {
    "id": 455,
    "note": 71,
    "at": 64320,
    "duration": 480,
    "velocity": 90
  },
  {
    "id": 456,
    "note": 63,
    "at": 64480,
    "duration": 160,
    "velocity": 90
  },
  {
    "id": 457,
    "note": 66,
    "at": 64640,
    "duration": 160,
    "velocity": 90
  },
  {
    "id": 458,
    "note": 69,
    "at": 64800,
    "duration": 160,
    "velocity": 90
  },
  {
    "id": 459,
    "note": 73,
    "at": 64800,
    "duration": 480,
    "velocity": 90
  },
  {
    "id": 460,
    "note": 64,
    "at": 64960,
    "duration": 160,
    "velocity": 90
  },
  {
    "id": 461,
    "note": 68,
    "at": 65120,
    "duration": 160,
    "velocity": 90
  },
  {
    "id": 462,
    "note": 47,
    "at": 65280,
    "duration": 480,
    "velocity": 90
  },
  {
    "id": 463,
    "note": 71,
    "at": 65280,
    "duration": 160,
    "velocity": 90
  },
  {
    "id": 464,
    "note": 75,
    "at": 65280,
    "duration": 480,
    "velocity": 90
  },
  {
    "id": 465,
    "note": 66,
    "at": 65440,
    "duration": 160,
    "velocity": 90
  },
  {
    "id": 466,
    "note": 69,
    "at": 65600,
    "duration": 160,
    "velocity": 90
  },
  {
    "id": 467,
    "note": 54,
    "at": 65760,
    "duration": 480,
    "velocity": 90
  },
  {
    "id": 468,
    "note": 73,
    "at": 65760,
    "duration": 160,
    "velocity": 90
  },
  {
    "id": 469,
    "note": 76,
    "at": 65760,
    "duration": 480,
    "velocity": 90
  },
  {
    "id": 470,
    "note": 68,
    "at": 65920,
    "duration": 160,
    "velocity": 90
  },
  {
    "id": 471,
    "note": 71,
    "at": 66080,
    "duration": 160,
    "velocity": 90
  },
  {
    "id": 472,
    "note": 57,
    "at": 66240,
    "duration": 480,
    "velocity": 90
  },
  {
    "id": 473,
    "note": 75,
    "at": 66240,
    "duration": 160,
    "velocity": 90
  },
  {
    "id": 474,
    "note": 78,
    "at": 66240,
    "duration": 480,
    "velocity": 90
  },
  {
    "id": 475,
    "note": 69,
    "at": 66400,
    "duration": 160,
    "velocity": 90
  },
  {
    "id": 476,
    "note": 73,
    "at": 66560,
    "duration": 160,
    "velocity": 90
  },
  {
    "id": 477,
    "note": 59,
    "at": 66720,
    "duration": 480,
    "velocity": 90
  },
  {
    "id": 478,
    "note": 76,
    "at": 66720,
    "duration": 160,
    "velocity": 90
  },
  {
    "id": 479,
    "note": 80,
    "at": 66720,
    "duration": 480,
    "velocity": 90
  },
  {
    "id": 480,
    "note": 71,
    "at": 66880,
    "duration": 160,
    "velocity": 90
  },
  {
    "id": 481,
    "note": 75,
    "at": 67040,
    "duration": 160,
    "velocity": 90
  },
  {
    "id": 482,
    "note": 63,
    "at": 67200,
    "duration": 480,
    "velocity": 90
  },
  {
    "id": 483,
    "note": 78,
    "at": 67200,
    "duration": 160,
    "velocity": 90
  },
  {
    "id": 484,
    "note": 81,
    "at": 67200,
    "duration": 480,
    "velocity": 90
  },
  {
    "id": 485,
    "note": 73,
    "at": 67360,
    "duration": 160,
    "velocity": 90
  },
  {
    "id": 486,
    "note": 76,
    "at": 67520,
    "duration": 160,
    "velocity": 90
  },
  {
    "id": 487,
    "note": 66,
    "at": 67680,
    "duration": 480,
    "velocity": 90
  },
  {
    "id": 488,
    "note": 80,
    "at": 67680,
    "duration": 160,
    "velocity": 90
  },
  {
    "id": 489,
    "note": 83,
    "at": 67680,
    "duration": 480,
    "velocity": 90
  },
  {
    "id": 490,
    "note": 75,
    "at": 67840,
    "duration": 160,
    "velocity": 90
  },
  {
    "id": 491,
    "note": 78,
    "at": 68000,
    "duration": 160,
    "velocity": 90
  },
  {
    "id": 492,
    "note": 69,
    "at": 68160,
    "duration": 480,
    "velocity": 90
  },
  {
    "id": 493,
    "note": 81,
    "at": 68160,
    "duration": 160,
    "velocity": 90
  },
  {
    "id": 494,
    "note": 85,
    "at": 68160,
    "duration": 480,
    "velocity": 90
  },
  {
    "id": 495,
    "note": 76,
    "at": 68320,
    "duration": 160,
    "velocity": 90
  },
  {
    "id": 496,
    "note": 80,
    "at": 68480,
    "duration": 160,
    "velocity": 90
  },
  {
    "id": 497,
    "note": 71,
    "at": 68640,
    "duration": 480,
    "velocity": 90
  },
  {
    "id": 498,
    "note": 83,
    "at": 68640,
    "duration": 160,
    "velocity": 90
  },
  {
    "id": 499,
    "note": 87,
    "at": 68640,
    "duration": 480,
    "velocity": 90
  },
  {
    "id": 500,
    "note": 78,
    "at": 68800,
    "duration": 160,
    "velocity": 90
  },
  {
    "id": 501,
    "note": 81,
    "at": 68960,
    "duration": 160,
    "velocity": 90
  },
  {
    "id": 502,
    "note": 28,
    "at": 69120,
    "duration": 240,
    "velocity": 90
  },
  {
    "id": 503,
    "note": 80,
    "at": 69120,
    "duration": 1920,
    "velocity": 90
  },
  {
    "id": 504,
    "note": 83,
    "at": 69120,
    "duration": 1920,
    "velocity": 90
  },
  {
    "id": 505,
    "note": 90,
    "at": 69120,
    "duration": 960,
    "velocity": 90
  },
  {
    "id": 506,
    "note": 40,
    "at": 69360,
    "duration": 240,
    "velocity": 90
  },
  {
    "id": 507,
    "note": 47,
    "at": 69600,
    "duration": 240,
    "velocity": 90
  },
  {
    "id": 508,
    "note": 52,
    "at": 69840,
    "duration": 240,
    "velocity": 90
  },
  {
    "id": 509,
    "note": 56,
    "at": 70080,
    "duration": 240,
    "velocity": 90
  },
  {
    "id": 510,
    "note": 88,
    "at": 70080,
    "duration": 960,
    "velocity": 90
  },
  {
    "id": 511,
    "note": 59,
    "at": 70320,
    "duration": 240,
    "velocity": 90
  },
  {
    "id": 512,
    "note": 64,
    "at": 70560,
    "duration": 240,
    "velocity": 90
  },
  {
    "id": 513,
    "note": 68,
    "at": 70800,
    "duration": 240,
    "velocity": 90
  },
  {
    "id": 514,
    "note": 76,
    "at": 71040,
    "duration": 2080,
    "velocity": 90
  },
  {
    "id": 515,
    "note": 64,
    "at": 72000,
    "duration": 960,
    "velocity": 90
  },
  {
    "id": 516,
    "note": 59,
    "at": 72960,
    "duration": 240,
    "velocity": 90
  },
  {
    "id": 517,
    "note": 66,
    "at": 72960,
    "duration": 1440,
    "velocity": 90
  },
  {
    "id": 518,
    "note": 69,
    "at": 72960,
    "duration": 1440,
    "velocity": 90
  },
  {
    "id": 519,
    "note": 74,
    "at": 73120,
    "duration": 160,
    "velocity": 90
  },
  {
    "id": 520,
    "note": 61,
    "at": 73200,
    "duration": 240,
    "velocity": 90
  },
  {
    "id": 521,
    "note": 76,
    "at": 73280,
    "duration": 160,
    "velocity": 90
  },
  {
    "id": 522,
    "note": 62,
    "at": 73440,
    "duration": 960,
    "velocity": 90
  },
  {
    "id": 523,
    "note": 73,
    "at": 73440,
    "duration": 720,
    "velocity": 90
  },
  {
    "id": 524,
    "note": 71,
    "at": 74160,
    "duration": 240,
    "velocity": 90
  },
  {
    "id": 525,
    "note": 52,
    "at": 74400,
    "duration": 480,
    "velocity": 90
  },
  {
    "id": 526,
    "note": 62,
    "at": 74400,
    "duration": 480,
    "velocity": 90
  },
  {
    "id": 527,
    "note": 68,
    "at": 74400,
    "duration": 480,
    "velocity": 90
  },
  {
    "id": 528,
    "note": 71,
    "at": 74400,
    "duration": 240,
    "velocity": 90
  },
  {
    "id": 529,
    "note": 73,
    "at": 74640,
    "duration": 240,
    "velocity": 90
  },
  {
    "id": 530,
    "note": 54,
    "at": 74880,
    "duration": 480,
    "velocity": 90
  },
  {
    "id": 531,
    "note": 61,
    "at": 74880,
    "duration": 480,
    "velocity": 90
  },
  {
    "id": 532,
    "note": 66,
    "at": 74880,
    "duration": 480,
    "velocity": 90
  },
  {
    "id": 533,
    "note": 69,
    "at": 74880,
    "duration": 480,
    "velocity": 90
  },
  {
    "id": 534,
    "note": 47,
    "at": 75360,
    "duration": 1440,
    "velocity": 90
  },
  {
    "id": 535,
    "note": 57,
    "at": 75360,
    "duration": 1440,
    "velocity": 90
  },
  {
    "id": 536,
    "note": 63,
    "at": 75360,
    "duration": 1440,
    "velocity": 90
  },
  {
    "id": 537,
    "note": 66,
    "at": 75360,
    "duration": 960,
    "velocity": 90
  },
  {
    "id": 538,
    "note": 68,
    "at": 76320,
    "duration": 480,
    "velocity": 90
  },
  {
    "id": 539,
    "note": 40,
    "at": 76800,
    "duration": 480,
    "velocity": 90
  },
  {
    "id": 540,
    "note": 47,
    "at": 76800,
    "duration": 480,
    "velocity": 90
  },
  {
    "id": 541,
    "note": 56,
    "at": 76800,
    "duration": 480,
    "velocity": 90
  },
  {
    "id": 542,
    "note": 62,
    "at": 76800,
    "duration": 480,
    "velocity": 90
  },
  {
    "id": 543,
    "note": 66,
    "at": 76800,
    "duration": 240,
    "velocity": 90
  },
  {
    "id": 544,
    "note": 64,
    "at": 77040,
    "duration": 240,
    "velocity": 90
  },
  {
    "id": 545,
    "note": 56,
    "at": 77280,
    "duration": 1440,
    "velocity": 90
  },
  {
    "id": 546,
    "note": 62,
    "at": 77280,
    "duration": 1440,
    "velocity": 90
  },
  {
    "id": 547,
    "note": 66,
    "at": 77280,
    "duration": 960,
    "velocity": 90
  },
  {
    "id": 548,
    "note": 71,
    "at": 77280,
    "duration": 1440,
    "velocity": 90
  },
  {
    "id": 549,
    "note": 74,
    "at": 77280,
    "duration": 1440,
    "velocity": 90
  },
  {
    "id": 550,
    "note": 78,
    "at": 77280,
    "duration": 960,
    "velocity": 90
  },
  {
    "id": 551,
    "note": 64,
    "at": 78240,
    "duration": 480,
    "velocity": 90
  },
  {
    "id": 552,
    "note": 76,
    "at": 78240,
    "duration": 480,
    "velocity": 90
  },
  {
    "id": 553,
    "note": 45,
    "at": 78720,
    "duration": 480,
    "velocity": 90
  },
  {
    "id": 554,
    "note": 52,
    "at": 78720,
    "duration": 480,
    "velocity": 90
  },
  {
    "id": 555,
    "note": 57,
    "at": 78720,
    "duration": 480,
    "velocity": 90
  },
  {
    "id": 556,
    "note": 61,
    "at": 78720,
    "duration": 480,
    "velocity": 90
  },
  {
    "id": 557,
    "note": 66,
    "at": 78720,
    "duration": 240,
    "velocity": 90
  },
  {
    "id": 558,
    "note": 64,
    "at": 78960,
    "duration": 240,
    "velocity": 90
  },
  {
    "id": 559,
    "note": 52,
    "at": 79200,
    "duration": 1440,
    "velocity": 90
  },
  {
    "id": 560,
    "note": 57,
    "at": 79200,
    "duration": 1440,
    "velocity": 90
  },
  {
    "id": 561,
    "note": 61,
    "at": 79200,
    "duration": 1440,
    "velocity": 90
  },
  {
    "id": 562,
    "note": 64,
    "at": 79200,
    "duration": 1440,
    "velocity": 90
  },
  {
    "id": 563,
    "note": 69,
    "at": 79200,
    "duration": 1440,
    "velocity": 90
  },
  {
    "id": 564,
    "note": 73,
    "at": 79200,
    "duration": 1440,
    "velocity": 90
  },
  {
    "id": 565,
    "note": 80,
    "at": 79200,
    "duration": 720,
    "velocity": 90
  },
  {
    "id": 566,
    "note": 83,
    "at": 79920,
    "duration": 240,
    "velocity": 90
  },
  {
    "id": 567,
    "note": 81,
    "at": 80160,
    "duration": 240,
    "velocity": 90
  },
  {
    "id": 568,
    "note": 78,
    "at": 80400,
    "duration": 240,
    "velocity": 90
  },
  {
    "id": 569,
    "note": 59,
    "at": 80640,
    "duration": 240,
    "velocity": 90
  },
  {
    "id": 570,
    "note": 66,
    "at": 80640,
    "duration": 1440,
    "velocity": 90
  },
  {
    "id": 571,
    "note": 69,
    "at": 80640,
    "duration": 1440,
    "velocity": 90
  },
  {
    "id": 572,
    "note": 76,
    "at": 80640,
    "duration": 160,
    "velocity": 90
  },
  {
    "id": 573,
    "note": 74,
    "at": 80800,
    "duration": 160,
    "velocity": 90
  },
  {
    "id": 574,
    "note": 61,
    "at": 80880,
    "duration": 240,
    "velocity": 90
  },
  {
    "id": 575,
    "note": 76,
    "at": 80960,
    "duration": 160,
    "velocity": 90
  },
  {
    "id": 576,
    "note": 62,
    "at": 81120,
    "duration": 1440,
    "velocity": 90
  },
  {
    "id": 577,
    "note": 73,
    "at": 81120,
    "duration": 720,
    "velocity": 90
  },
  {
    "id": 578,
    "note": 71,
    "at": 81840,
    "duration": 240,
    "velocity": 90
  },
  {
    "id": 579,
    "note": 65,
    "at": 82080,
    "duration": 480,
    "velocity": 90
  },
  {
    "id": 580,
    "note": 68,
    "at": 82080,
    "duration": 480,
    "velocity": 90
  },
  {
    "id": 581,
    "note": 71,
    "at": 82080,
    "duration": 240,
    "velocity": 90
  },
  {
    "id": 582,
    "note": 73,
    "at": 82320,
    "duration": 240,
    "velocity": 90
  },
  {
    "id": 583,
    "note": 54,
    "at": 82560,
    "duration": 480,
    "velocity": 90
  },
  {
    "id": 584,
    "note": 61,
    "at": 82560,
    "duration": 480,
    "velocity": 90
  },
  {
    "id": 585,
    "note": 64,
    "at": 82560,
    "duration": 960,
    "velocity": 90
  },
  {
    "id": 586,
    "note": 69,
    "at": 82560,
    "duration": 480,
    "velocity": 90
  },
  {
    "id": 587,
    "note": 47,
    "at": 83040,
    "duration": 960,
    "velocity": 90
  },
  {
    "id": 588,
    "note": 57,
    "at": 83040,
    "duration": 960,
    "velocity": 90
  },
  {
    "id": 589,
    "note": 66,
    "at": 83040,
    "duration": 720,
    "velocity": 90
  },
  {
    "id": 590,
    "note": 63,
    "at": 83520,
    "duration": 480,
    "velocity": 90
  },
  {
    "id": 591,
    "note": 66,
    "at": 83760,
    "duration": 240,
    "velocity": 90
  },
  {
    "id": 592,
    "note": 45,
    "at": 84000,
    "duration": 480,
    "velocity": 90
  },
  {
    "id": 593,
    "note": 51,
    "at": 84000,
    "duration": 480,
    "velocity": 90
  },
  {
    "id": 594,
    "note": 61,
    "at": 84000,
    "duration": 480,
    "velocity": 90
  },
  {
    "id": 595,
    "note": 66,
    "at": 84000,
    "duration": 240,
    "velocity": 90
  },
  {
    "id": 596,
    "note": 68,
    "at": 84240,
    "duration": 240,
    "velocity": 90
  },
  {
    "id": 597,
    "note": 44,
    "at": 84480,
    "duration": 480,
    "velocity": 90
  },
  {
    "id": 598,
    "note": 52,
    "at": 84480,
    "duration": 480,
    "velocity": 90
  },
  {
    "id": 599,
    "note": 59,
    "at": 84480,
    "duration": 480,
    "velocity": 90
  },
  {
    "id": 600,
    "note": 66,
    "at": 84480,
    "duration": 160,
    "velocity": 90
  },
  {
    "id": 601,
    "note": 64,
    "at": 84640,
    "duration": 160,
    "velocity": 90
  },
  {
    "id": 602,
    "note": 42,
    "at": 84960,
    "duration": 960,
    "velocity": 90
  },
  {
    "id": 603,
    "note": 52,
    "at": 84960,
    "duration": 960,
    "velocity": 90
  },
  {
    "id": 604,
    "note": 57,
    "at": 84960,
    "duration": 960,
    "velocity": 90
  },
  {
    "id": 605,
    "note": 61,
    "at": 84960,
    "duration": 960,
    "velocity": 90
  },
  {
    "id": 606,
    "note": 35,
    "at": 85920,
    "duration": 480,
    "velocity": 90
  },
  {
    "id": 607,
    "note": 47,
    "at": 85920,
    "duration": 480,
    "velocity": 90
  },
  {
    "id": 608,
    "note": 57,
    "at": 85920,
    "duration": 480,
    "velocity": 90
  },
  {
    "id": 609,
    "note": 61,
    "at": 85920,
    "duration": 480,
    "velocity": 90
  },
  {
    "id": 610,
    "note": 64,
    "at": 85920,
    "duration": 480,
    "velocity": 90
  },
  {
    "id": 611,
    "note": 40,
    "at": 86400,
    "duration": 960,
    "velocity": 90
  },
  {
    "id": 612,
    "note": 47,
    "at": 86400,
    "duration": 960,
    "velocity": 90
  },
  {
    "id": 613,
    "note": 57,
    "at": 86400,
    "duration": 480,
    "velocity": 90
  },
  {
    "id": 614,
    "note": 59,
    "at": 86400,
    "duration": 1440,
    "velocity": 90
  },
  {
    "id": 615,
    "note": 64,
    "at": 86400,
    "duration": 1440,
    "velocity": 90
  },
  {
    "id": 616,
    "note": 56,
    "at": 86880,
    "duration": 960,
    "velocity": 90
  },
  {
    "id": 617,
    "note": 40,
    "at": 87360,
    "duration": 480,
    "velocity": 90
  },
  {
    "id": 618,
    "note": 52,
    "at": 87840,
    "duration": 480,
    "velocity": 90
  },
  {
    "id": 619,
    "note": 50,
    "at": 88320,
    "duration": 160,
    "velocity": 90
  },
  {
    "id": 620,
    "note": 54,
    "at": 88480,
    "duration": 160,
    "velocity": 90
  },
  {
    "id": 621,
    "note": 57,
    "at": 88640,
    "duration": 160,
    "velocity": 90
  },
  {
    "id": 622,
    "note": 42,
    "at": 88800,
    "duration": 960,
    "velocity": 90
  },
  {
    "id": 623,
    "note": 61,
    "at": 88800,
    "duration": 160,
    "velocity": 90
  },
  {
    "id": 624,
    "note": 59,
    "at": 88960,
    "duration": 160,
    "velocity": 90
  },
  {
    "id": 625,
    "note": 57,
    "at": 89120,
    "duration": 160,
    "velocity": 90
  },
  {
    "id": 626,
    "note": 56,
    "at": 89280,
    "duration": 160,
    "velocity": 90
  },
  {
    "id": 627,
    "note": 59,
    "at": 89440,
    "duration": 160,
    "velocity": 90
  },
  {
    "id": 628,
    "note": 62,
    "at": 89600,
    "duration": 160,
    "velocity": 90
  },
  {
    "id": 629,
    "note": 40,
    "at": 89760,
    "duration": 480,
    "velocity": 90
  },
  {
    "id": 630,
    "note": 66,
    "at": 89760,
    "duration": 160,
    "velocity": 90
  },
  {
    "id": 631,
    "note": 64,
    "at": 89920,
    "duration": 160,
    "velocity": 90
  },
  {
    "id": 632,
    "note": 62,
    "at": 90080,
    "duration": 160,
    "velocity": 90
  },
  {
    "id": 633,
    "note": 61,
    "at": 90240,
    "duration": 160,
    "velocity": 90
  },
  {
    "id": 634,
    "note": 64,
    "at": 90400,
    "duration": 160,
    "velocity": 90
  },
  {
    "id": 635,
    "note": 68,
    "at": 90560,
    "duration": 160,
    "velocity": 90
  },
  {
    "id": 636,
    "note": 33,
    "at": 90720,
    "duration": 960,
    "velocity": 90
  },
  {
    "id": 637,
    "note": 45,
    "at": 90720,
    "duration": 960,
    "velocity": 90
  },
  {
    "id": 638,
    "note": 71,
    "at": 90720,
    "duration": 160,
    "velocity": 90
  },
  {
    "id": 639,
    "note": 69,
    "at": 90880,
    "duration": 160,
    "velocity": 90
  },
  {
    "id": 640,
    "note": 68,
    "at": 91040,
    "duration": 160,
    "velocity": 90
  },
  {
    "id": 641,
    "note": 66,
    "at": 91200,
    "duration": 160,
    "velocity": 90
  },
  {
    "id": 642,
    "note": 69,
    "at": 91360,
    "duration": 160,
    "velocity": 90
  },
  {
    "id": 643,
    "note": 73,
    "at": 91520,
    "duration": 160,
    "velocity": 90
  },
  {
    "id": 644,
    "note": 38,
    "at": 91680,
    "duration": 480,
    "velocity": 90
  },
  {
    "id": 645,
    "note": 50,
    "at": 91680,
    "duration": 480,
    "velocity": 90
  },
  {
    "id": 646,
    "note": 76,
    "at": 91680,
    "duration": 160,
    "velocity": 90
  },
  {
    "id": 647,
    "note": 74,
    "at": 91840,
    "duration": 160,
    "velocity": 90
  },
  {
    "id": 648,
    "note": 73,
    "at": 92000,
    "duration": 160,
    "velocity": 90
  },
  {
    "id": 649,
    "note": 71,
    "at": 92160,
    "duration": 160,
    "velocity": 90
  },
  {
    "id": 650,
    "note": 74,
    "at": 92320,
    "duration": 160,
    "velocity": 90
  },
  {
    "id": 651,
    "note": 78,
    "at": 92480,
    "duration": 160,
    "velocity": 90
  },
  {
    "id": 652,
    "note": 35,
    "at": 92640,
    "duration": 480,
    "velocity": 90
  },
  {
    "id": 653,
    "note": 47,
    "at": 92640,
    "duration": 480,
    "velocity": 90
  },
  {
    "id": 654,
    "note": 81,
    "at": 92640,
    "duration": 720,
    "velocity": 90
  },
  {
    "id": 655,
    "note": 54,
    "at": 93120,
    "duration": 480,
    "velocity": 90
  },
  {
    "id": 656,
    "note": 59,
    "at": 93120,
    "duration": 480,
    "velocity": 90
  },
  {
    "id": 657,
    "note": 62,
    "at": 93120,
    "duration": 480,
    "velocity": 90
  },
  {
    "id": 658,
    "note": 66,
    "at": 93120,
    "duration": 480,
    "velocity": 90
  },
  {
    "id": 659,
    "note": 71,
    "at": 93120,
    "duration": 480,
    "velocity": 90
  },
  {
    "id": 660,
    "note": 74,
    "at": 93120,
    "duration": 480,
    "velocity": 90
  },
  {
    "id": 661,
    "note": 80,
    "at": 93360,
    "duration": 240,
    "velocity": 90
  },
  {
    "id": 662,
    "note": 40,
    "at": 93600,
    "duration": 480,
    "velocity": 90
  },
  {
    "id": 663,
    "note": 52,
    "at": 93600,
    "duration": 480,
    "velocity": 90
  },
  {
    "id": 664,
    "note": 68,
    "at": 93600,
    "duration": 480,
    "velocity": 90
  },
  {
    "id": 665,
    "note": 74,
    "at": 93600,
    "duration": 480,
    "velocity": 90
  },
  {
    "id": 666,
    "note": 78,
    "at": 93600,
    "duration": 240,
    "velocity": 90
  },
  {
    "id": 667,
    "note": 76,
    "at": 93840,
    "duration": 240,
    "velocity": 90
  },
  {
    "id": 668,
    "note": 33,
    "at": 94080,
    "duration": 480,
    "velocity": 90
  },
  {
    "id": 669,
    "note": 45,
    "at": 94080,
    "duration": 480,
    "velocity": 90
  },
  {
    "id": 670,
    "note": 69,
    "at": 94080,
    "duration": 960,
    "velocity": 90
  },
  {
    "id": 671,
    "note": 73,
    "at": 94080,
    "duration": 960,
    "velocity": 90
  },
  {
    "id": 672,
    "note": 78,
    "at": 94080,
    "duration": 240,
    "velocity": 90
  },
  {
    "id": 673,
    "note": 76,
    "at": 94320,
    "duration": 240,
    "velocity": 90
  },
  {
    "id": 674,
    "note": 52,
    "at": 94560,
    "duration": 480,
    "velocity": 90
  },
  {
    "id": 675,
    "note": 74,
    "at": 94560,
    "duration": 240,
    "velocity": 90
  },
  {
    "id": 676,
    "note": 66,
    "at": 95040,
    "duration": 240,
    "velocity": 90
  },
  {
    "id": 677,
    "note": 69,
    "at": 95040,
    "duration": 960,
    "velocity": 90
  },
  {
    "id": 678,
    "note": 74,
    "at": 95040,
    "duration": 240,
    "velocity": 90
  },
  {
    "id": 679,
    "note": 64,
    "at": 95280,
    "duration": 240,
    "velocity": 90
  },
  {
    "id": 680,
    "note": 73,
    "at": 95280,
    "duration": 240,
    "velocity": 90
  },
  {
    "id": 681,
    "note": 62,
    "at": 95520,
    "duration": 240,
    "velocity": 90
  },
  {
    "id": 682,
    "note": 71,
    "at": 95520,
    "duration": 240,
    "velocity": 90
  },
  {
    "id": 683,
    "note": 61,
    "at": 95760,
    "duration": 240,
    "velocity": 90
  },
  {
    "id": 684,
    "note": 50,
    "at": 96000,
    "duration": 160,
    "velocity": 90
  },
  {
    "id": 685,
    "note": 54,
    "at": 96160,
    "duration": 160,
    "velocity": 90
  },
  {
    "id": 686,
    "note": 57,
    "at": 96320,
    "duration": 160,
    "velocity": 90
  },
  {
    "id": 687,
    "note": 42,
    "at": 96480,
    "duration": 960,
    "velocity": 90
  },
  {
    "id": 688,
    "note": 61,
    "at": 96480,
    "duration": 160,
    "velocity": 90
  },
  {
    "id": 689,
    "note": 59,
    "at": 96640,
    "duration": 160,
    "velocity": 90
  },
  {
    "id": 690,
    "note": 57,
    "at": 96800,
    "duration": 160,
    "velocity": 90
  },
  {
    "id": 691,
    "note": 56,
    "at": 96960,
    "duration": 160,
    "velocity": 90
  },
  {
    "id": 692,
    "note": 59,
    "at": 97120,
    "duration": 160,
    "velocity": 90
  },
  {
    "id": 693,
    "note": 62,
    "at": 97280,
    "duration": 160,
    "velocity": 90
  },
  {
    "id": 694,
    "note": 40,
    "at": 97440,
    "duration": 480,
    "velocity": 90
  },
  {
    "id": 695,
    "note": 66,
    "at": 97440,
    "duration": 160,
    "velocity": 90
  },
  {
    "id": 696,
    "note": 64,
    "at": 97600,
    "duration": 160,
    "velocity": 90
  },
  {
    "id": 697,
    "note": 62,
    "at": 97760,
    "duration": 160,
    "velocity": 90
  },
  {
    "id": 698,
    "note": 61,
    "at": 97920,
    "duration": 160,
    "velocity": 90
  },
  {
    "id": 699,
    "note": 64,
    "at": 98080,
    "duration": 160,
    "velocity": 90
  },
  {
    "id": 700,
    "note": 68,
    "at": 98240,
    "duration": 160,
    "velocity": 90
  },
  {
    "id": 701,
    "note": 33,
    "at": 98400,
    "duration": 960,
    "velocity": 90
  },
  {
    "id": 702,
    "note": 45,
    "at": 98400,
    "duration": 960,
    "velocity": 90
  },
  {
    "id": 703,
    "note": 71,
    "at": 98400,
    "duration": 160,
    "velocity": 90
  },
  {
    "id": 704,
    "note": 69,
    "at": 98560,
    "duration": 160,
    "velocity": 90
  },
  {
    "id": 705,
    "note": 68,
    "at": 98720,
    "duration": 160,
    "velocity": 90
  },
  {
    "id": 706,
    "note": 66,
    "at": 98880,
    "duration": 160,
    "velocity": 90
  },
  {
    "id": 707,
    "note": 69,
    "at": 99040,
    "duration": 160,
    "velocity": 90
  },
  {
    "id": 708,
    "note": 73,
    "at": 99200,
    "duration": 160,
    "velocity": 90
  },
  {
    "id": 709,
    "note": 38,
    "at": 99360,
    "duration": 480,
    "velocity": 90
  },
  {
    "id": 710,
    "note": 50,
    "at": 99360,
    "duration": 480,
    "velocity": 90
  },
  {
    "id": 711,
    "note": 76,
    "at": 99360,
    "duration": 160,
    "velocity": 90
  },
  {
    "id": 712,
    "note": 74,
    "at": 99520,
    "duration": 160,
    "velocity": 90
  },
  {
    "id": 713,
    "note": 73,
    "at": 99680,
    "duration": 160,
    "velocity": 90
  },
  {
    "id": 714,
    "note": 71,
    "at": 99840,
    "duration": 160,
    "velocity": 90
  },
  {
    "id": 715,
    "note": 74,
    "at": 100000,
    "duration": 160,
    "velocity": 90
  },
  {
    "id": 716,
    "note": 78,
    "at": 100160,
    "duration": 160,
    "velocity": 90
  },
  {
    "id": 717,
    "note": 35,
    "at": 100320,
    "duration": 240,
    "velocity": 90
  },
  {
    "id": 718,
    "note": 47,
    "at": 100320,
    "duration": 240,
    "velocity": 90
  },
  {
    "id": 719,
    "note": 81,
    "at": 100320,
    "duration": 720,
    "velocity": 90
  },
  {
    "id": 720,
    "note": 54,
    "at": 100800,
    "duration": 960,
    "velocity": 90
  },
  {
    "id": 721,
    "note": 59,
    "at": 100800,
    "duration": 960,
    "velocity": 90
  },
  {
    "id": 722,
    "note": 62,
    "at": 100800,
    "duration": 960,
    "velocity": 90
  },
  {
    "id": 723,
    "note": 66,
    "at": 100800,
    "duration": 960,
    "velocity": 90
  },
  {
    "id": 724,
    "note": 71,
    "at": 100800,
    "duration": 960,
    "velocity": 90
  },
  {
    "id": 725,
    "note": 74,
    "at": 100800,
    "duration": 960,
    "velocity": 90
  },
  {
    "id": 726,
    "note": 80,
    "at": 101040,
    "duration": 240,
    "velocity": 90
  },
  {
    "id": 727,
    "note": 78,
    "at": 101280,
    "duration": 240,
    "velocity": 90
  },
  {
    "id": 728,
    "note": 80,
    "at": 101520,
    "duration": 240,
    "velocity": 90
  },
  {
    "id": 729,
    "note": 71,
    "at": 101760,
    "duration": 160,
    "velocity": 90
  },
  {
    "id": 730,
    "note": 74,
    "at": 101920,
    "duration": 160,
    "velocity": 90
  },
  {
    "id": 731,
    "note": 78,
    "at": 102080,
    "duration": 160,
    "velocity": 90
  },
  {
    "id": 732,
    "note": 38,
    "at": 102240,
    "duration": 240,
    "velocity": 90
  },
  {
    "id": 733,
    "note": 50,
    "at": 102240,
    "duration": 240,
    "velocity": 90
  },
  {
    "id": 734,
    "note": 81,
    "at": 102240,
    "duration": 720,
    "velocity": 90
  },
  {
    "id": 735,
    "note": 54,
    "at": 102720,
    "duration": 960,
    "velocity": 90
  },
  {
    "id": 736,
    "note": 59,
    "at": 102720,
    "duration": 960,
    "velocity": 90
  },
  {
    "id": 737,
    "note": 62,
    "at": 102720,
    "duration": 960,
    "velocity": 90
  },
  {
    "id": 738,
    "note": 66,
    "at": 102720,
    "duration": 960,
    "velocity": 90
  },
  {
    "id": 739,
    "note": 71,
    "at": 102720,
    "duration": 960,
    "velocity": 90
  },
  {
    "id": 740,
    "note": 74,
    "at": 102720,
    "duration": 960,
    "velocity": 90
  },
  {
    "id": 741,
    "note": 80,
    "at": 102960,
    "duration": 240,
    "velocity": 90
  },
  {
    "id": 742,
    "note": 78,
    "at": 103200,
    "duration": 240,
    "velocity": 90
  },
  {
    "id": 743,
    "note": 80,
    "at": 103440,
    "duration": 240,
    "velocity": 90
  },
  {
    "id": 744,
    "note": 52,
    "at": 103680,
    "duration": 960,
    "velocity": 90
  },
  {
    "id": 745,
    "note": 62,
    "at": 103680,
    "duration": 1920,
    "velocity": 90
  },
  {
    "id": 746,
    "note": 68,
    "at": 103680,
    "duration": 960,
    "velocity": 90
  },
  {
    "id": 747,
    "note": 76,
    "at": 103680,
    "duration": 160,
    "velocity": 90
  },
  {
    "id": 748,
    "note": 74,
    "at": 103840,
    "duration": 160,
    "velocity": 90
  },
  {
    "id": 749,
    "note": 76,
    "at": 104000,
    "duration": 160,
    "velocity": 90
  },
  {
    "id": 750,
    "note": 73,
    "at": 104160,
    "duration": 720,
    "velocity": 90
  },
  {
    "id": 751,
    "note": 54,
    "at": 104640,
    "duration": 480,
    "velocity": 90
  },
  {
    "id": 752,
    "note": 66,
    "at": 104640,
    "duration": 480,
    "velocity": 90
  },
  {
    "id": 753,
    "note": 71,
    "at": 104880,
    "duration": 240,
    "velocity": 90
  },
  {
    "id": 754,
    "note": 56,
    "at": 105120,
    "duration": 480,
    "velocity": 90
  },
  {
    "id": 755,
    "note": 65,
    "at": 105120,
    "duration": 480,
    "velocity": 90
  },
  {
    "id": 756,
    "note": 71,
    "at": 105120,
    "duration": 240,
    "velocity": 90
  },
  {
    "id": 757,
    "note": 73,
    "at": 105360,
    "duration": 240,
    "velocity": 90
  },
  {
    "id": 758,
    "note": 57,
    "at": 105600,
    "duration": 960,
    "velocity": 90
  },
  {
    "id": 759,
    "note": 61,
    "at": 105600,
    "duration": 960,
    "velocity": 90
  },
  {
    "id": 760,
    "note": 64,
    "at": 105600,
    "duration": 960,
    "velocity": 90
  },
  {
    "id": 761,
    "note": 69,
    "at": 105600,
    "duration": 480,
    "velocity": 90
  },
  {
    "id": 762,
    "note": 66,
    "at": 106080,
    "duration": 960,
    "velocity": 90
  },
  {
    "id": 763,
    "note": 47,
    "at": 106560,
    "duration": 960,
    "velocity": 90
  },
  {
    "id": 764,
    "note": 57,
    "at": 106560,
    "duration": 960,
    "velocity": 90
  },
  {
    "id": 765,
    "note": 63,
    "at": 106560,
    "duration": 960,
    "velocity": 90
  },
  {
    "id": 766,
    "note": 68,
    "at": 107040,
    "duration": 480,
    "velocity": 90
  },
  {
    "id": 767,
    "note": 40,
    "at": 107520,
    "duration": 480,
    "velocity": 90
  },
  {
    "id": 768,
    "note": 47,
    "at": 107520,
    "duration": 480,
    "velocity": 90
  },
  {
    "id": 769,
    "note": 56,
    "at": 107520,
    "duration": 480,
    "velocity": 90
  },
  {
    "id": 770,
    "note": 62,
    "at": 107520,
    "duration": 480,
    "velocity": 90
  },
  {
    "id": 771,
    "note": 66,
    "at": 107520,
    "duration": 240,
    "velocity": 90
  },
  {
    "id": 772,
    "note": 64,
    "at": 107760,
    "duration": 240,
    "velocity": 90
  },
  {
    "id": 773,
    "note": 56,
    "at": 108000,
    "duration": 1440,
    "velocity": 90
  },
  {
    "id": 774,
    "note": 62,
    "at": 108000,
    "duration": 1440,
    "velocity": 90
  },
  {
    "id": 775,
    "note": 66,
    "at": 108000,
    "duration": 960,
    "velocity": 90
  },
  {
    "id": 776,
    "note": 71,
    "at": 108000,
    "duration": 1440,
    "velocity": 90
  },
  {
    "id": 777,
    "note": 74,
    "at": 108000,
    "duration": 1440,
    "velocity": 90
  },
  {
    "id": 778,
    "note": 78,
    "at": 108000,
    "duration": 960,
    "velocity": 90
  },
  {
    "id": 779,
    "note": 64,
    "at": 108960,
    "duration": 480,
    "velocity": 90
  },
  {
    "id": 780,
    "note": 76,
    "at": 108960,
    "duration": 480,
    "velocity": 90
  },
  {
    "id": 781,
    "note": 45,
    "at": 109440,
    "duration": 480,
    "velocity": 90
  },
  {
    "id": 782,
    "note": 52,
    "at": 109440,
    "duration": 480,
    "velocity": 90
  },
  {
    "id": 783,
    "note": 57,
    "at": 109440,
    "duration": 480,
    "velocity": 90
  },
  {
    "id": 784,
    "note": 61,
    "at": 109440,
    "duration": 480,
    "velocity": 90
  },
  {
    "id": 785,
    "note": 66,
    "at": 109440,
    "duration": 240,
    "velocity": 90
  },
  {
    "id": 786,
    "note": 64,
    "at": 109680,
    "duration": 240,
    "velocity": 90
  },
  {
    "id": 787,
    "note": 52,
    "at": 109920,
    "duration": 1440,
    "velocity": 90
  },
  {
    "id": 788,
    "note": 57,
    "at": 109920,
    "duration": 1440,
    "velocity": 90
  },
  {
    "id": 789,
    "note": 61,
    "at": 109920,
    "duration": 1440,
    "velocity": 90
  },
  {
    "id": 790,
    "note": 64,
    "at": 109920,
    "duration": 1440,
    "velocity": 90
  },
  {
    "id": 791,
    "note": 69,
    "at": 109920,
    "duration": 1440,
    "velocity": 90
  },
  {
    "id": 792,
    "note": 73,
    "at": 109920,
    "duration": 1440,
    "velocity": 90
  },
  {
    "id": 793,
    "note": 80,
    "at": 109920,
    "duration": 720,
    "velocity": 90
  },
  {
    "id": 794,
    "note": 83,
    "at": 110640,
    "duration": 240,
    "velocity": 90
  },
  {
    "id": 795,
    "note": 81,
    "at": 110880,
    "duration": 240,
    "velocity": 90
  },
  {
    "id": 796,
    "note": 78,
    "at": 111120,
    "duration": 240,
    "velocity": 90
  },
  {
    "id": 797,
    "note": 59,
    "at": 111360,
    "duration": 240,
    "velocity": 90
  },
  {
    "id": 798,
    "note": 66,
    "at": 111360,
    "duration": 1440,
    "velocity": 90
  },
  {
    "id": 799,
    "note": 69,
    "at": 111360,
    "duration": 1440,
    "velocity": 90
  },
  {
    "id": 800,
    "note": 76,
    "at": 111360,
    "duration": 160,
    "velocity": 90
  },
  {
    "id": 801,
    "note": 74,
    "at": 111520,
    "duration": 160,
    "velocity": 90
  },
  {
    "id": 802,
    "note": 61,
    "at": 111600,
    "duration": 240,
    "velocity": 90
  },
  {
    "id": 803,
    "note": 76,
    "at": 111680,
    "duration": 160,
    "velocity": 90
  },
  {
    "id": 804,
    "note": 62,
    "at": 111840,
    "duration": 1440,
    "velocity": 90
  },
  {
    "id": 805,
    "note": 73,
    "at": 111840,
    "duration": 720,
    "velocity": 90
  },
  {
    "id": 806,
    "note": 71,
    "at": 112560,
    "duration": 240,
    "velocity": 90
  },
  {
    "id": 807,
    "note": 65,
    "at": 112800,
    "duration": 480,
    "velocity": 90
  },
  {
    "id": 808,
    "note": 68,
    "at": 112800,
    "duration": 480,
    "velocity": 90
  },
  {
    "id": 809,
    "note": 71,
    "at": 112800,
    "duration": 240,
    "velocity": 90
  },
  {
    "id": 810,
    "note": 73,
    "at": 113040,
    "duration": 240,
    "velocity": 90
  },
  {
    "id": 811,
    "note": 54,
    "at": 113280,
    "duration": 960,
    "velocity": 90
  },
  {
    "id": 812,
    "note": 61,
    "at": 113280,
    "duration": 960,
    "velocity": 90
  },
  {
    "id": 813,
    "note": 64,
    "at": 113280,
    "duration": 960,
    "velocity": 90
  },
  {
    "id": 814,
    "note": 69,
    "at": 113280,
    "duration": 480,
    "velocity": 90
  },
  {
    "id": 815,
    "note": 68,
    "at": 113760,
    "duration": 720,
    "velocity": 90
  },
  {
    "id": 816,
    "note": 47,
    "at": 114240,
    "duration": 480,
    "velocity": 90
  },
  {
    "id": 817,
    "note": 57,
    "at": 114240,
    "duration": 480,
    "velocity": 90
  },
  {
    "id": 818,
    "note": 63,
    "at": 114240,
    "duration": 480,
    "velocity": 90
  },
  {
    "id": 819,
    "note": 66,
    "at": 114480,
    "duration": 240,
    "velocity": 90
  },
  {
    "id": 820,
    "note": 45,
    "at": 114720,
    "duration": 480,
    "velocity": 90
  },
  {
    "id": 821,
    "note": 51,
    "at": 114720,
    "duration": 480,
    "velocity": 90
  },
  {
    "id": 822,
    "note": 61,
    "at": 114720,
    "duration": 480,
    "velocity": 90
  },
  {
    "id": 823,
    "note": 66,
    "at": 114720,
    "duration": 240,
    "velocity": 90
  },
  {
    "id": 824,
    "note": 68,
    "at": 114960,
    "duration": 240,
    "velocity": 90
  },
  {
    "id": 825,
    "note": 44,
    "at": 115200,
    "duration": 480,
    "velocity": 90
  },
  {
    "id": 826,
    "note": 52,
    "at": 115200,
    "duration": 480,
    "velocity": 90
  },
  {
    "id": 827,
    "note": 59,
    "at": 115200,
    "duration": 480,
    "velocity": 90
  },
  {
    "id": 828,
    "note": 66,
    "at": 115200,
    "duration": 160,
    "velocity": 90
  },
  {
    "id": 829,
    "note": 64,
    "at": 115360,
    "duration": 160,
    "velocity": 90
  },
  {
    "id": 830,
    "note": 42,
    "at": 115680,
    "duration": 960,
    "velocity": 90
  },
  {
    "id": 831,
    "note": 52,
    "at": 115680,
    "duration": 960,
    "velocity": 90
  },
  {
    "id": 832,
    "note": 57,
    "at": 115680,
    "duration": 960,
    "velocity": 90
  },
  {
    "id": 833,
    "note": 61,
    "at": 115680,
    "duration": 960,
    "velocity": 90
  },
  {
    "id": 834,
    "note": 35,
    "at": 116640,
    "duration": 480,
    "velocity": 90
  },
  {
    "id": 835,
    "note": 47,
    "at": 116640,
    "duration": 480,
    "velocity": 90
  },
  {
    "id": 836,
    "note": 57,
    "at": 116640,
    "duration": 480,
    "velocity": 90
  },
  {
    "id": 837,
    "note": 61,
    "at": 116640,
    "duration": 480,
    "velocity": 90
  },
  {
    "id": 838,
    "note": 64,
    "at": 116640,
    "duration": 480,
    "velocity": 90
  },
  {
    "id": 839,
    "note": 40,
    "at": 117120,
    "duration": 960,
    "velocity": 90
  },
  {
    "id": 840,
    "note": 47,
    "at": 117120,
    "duration": 960,
    "velocity": 90
  },
  {
    "id": 841,
    "note": 57,
    "at": 117120,
    "duration": 480,
    "velocity": 90
  },
  {
    "id": 842,
    "note": 59,
    "at": 117120,
    "duration": 1440,
    "velocity": 90
  },
  {
    "id": 843,
    "note": 64,
    "at": 117120,
    "duration": 1440,
    "velocity": 90
  },
  {
    "id": 844,
    "note": 56,
    "at": 117600,
    "duration": 960,
    "velocity": 90
  },
  {
    "id": 845,
    "note": 40,
    "at": 118080,
    "duration": 480,
    "velocity": 90
  },
  {
    "id": 846,
    "note": 52,
    "at": 118560,
    "duration": 480,
    "velocity": 90
  },
  {
    "id": 847,
    "note": 40,
    "at": 119040,
    "duration": 480,
    "velocity": 90
  },
  {
    "id": 848,
    "note": 48,
    "at": 119040,
    "duration": 480,
    "velocity": 90
  },
  {
    "id": 849,
    "note": 55,
    "at": 119040,
    "duration": 480,
    "velocity": 90
  },
  {
    "id": 850,
    "note": 60,
    "at": 119040,
    "duration": 480,
    "velocity": 90
  },
  {
    "id": 851,
    "note": 67,
    "at": 119040,
    "duration": 160,
    "velocity": 90
  },
  {
    "id": 852,
    "note": 65,
    "at": 119200,
    "duration": 160,
    "velocity": 90
  },
  {
    "id": 853,
    "note": 67,
    "at": 119360,
    "duration": 160,
    "velocity": 90
  },
  {
    "id": 854,
    "note": 41,
    "at": 119520,
    "duration": 960,
    "velocity": 90
  },
  {
    "id": 855,
    "note": 48,
    "at": 119520,
    "duration": 960,
    "velocity": 90
  },
  {
    "id": 856,
    "note": 57,
    "at": 119520,
    "duration": 960,
    "velocity": 90
  },
  {
    "id": 857,
    "note": 60,
    "at": 119520,
    "duration": 960,
    "velocity": 90
  },
  {
    "id": 858,
    "note": 64,
    "at": 119520,
    "duration": 960,
    "velocity": 90
  },
  {
    "id": 859,
    "note": 43,
    "at": 120480,
    "duration": 480,
    "velocity": 90
  },
  {
    "id": 860,
    "note": 53,
    "at": 120480,
    "duration": 480,
    "velocity": 90
  },
  {
    "id": 861,
    "note": 59,
    "at": 120480,
    "duration": 480,
    "velocity": 90
  },
  {
    "id": 862,
    "note": 62,
    "at": 120480,
    "duration": 480,
    "velocity": 90
  },
  {
    "id": 863,
    "note": 45,
    "at": 120960,
    "duration": 480,
    "velocity": 90
  },
  {
    "id": 864,
    "note": 52,
    "at": 120960,
    "duration": 480,
    "velocity": 90
  },
  {
    "id": 865,
    "note": 57,
    "at": 120960,
    "duration": 480,
    "velocity": 90
  },
  {
    "id": 866,
    "note": 60,
    "at": 120960,
    "duration": 480,
    "velocity": 90
  },
  {
    "id": 867,
    "note": 47,
    "at": 121440,
    "duration": 960,
    "velocity": 90
  },
  {
    "id": 868,
    "note": 50,
    "at": 121440,
    "duration": 960,
    "velocity": 90
  },
  {
    "id": 869,
    "note": 53,
    "at": 121440,
    "duration": 960,
    "velocity": 90
  },
  {
    "id": 870,
    "note": 55,
    "at": 121440,
    "duration": 960,
    "velocity": 90
  },
  {
    "id": 871,
    "note": 45,
    "at": 122400,
    "duration": 480,
    "velocity": 90
  },
  {
    "id": 872,
    "note": 52,
    "at": 122400,
    "duration": 480,
    "velocity": 90
  },
  {
    "id": 873,
    "note": 57,
    "at": 122400,
    "duration": 480,
    "velocity": 90
  },
  {
    "id": 874,
    "note": 60,
    "at": 122400,
    "duration": 480,
    "velocity": 90
  },
  {
    "id": 875,
    "note": 43,
    "at": 122880,
    "duration": 480,
    "velocity": 90
  },
  {
    "id": 876,
    "note": 53,
    "at": 122880,
    "duration": 480,
    "velocity": 90
  },
  {
    "id": 877,
    "note": 59,
    "at": 122880,
    "duration": 480,
    "velocity": 90
  },
  {
    "id": 878,
    "note": 62,
    "at": 122880,
    "duration": 480,
    "velocity": 90
  },
  {
    "id": 879,
    "note": 41,
    "at": 123360,
    "duration": 480,
    "velocity": 90
  },
  {
    "id": 880,
    "note": 57,
    "at": 123360,
    "duration": 480,
    "velocity": 90
  },
  {
    "id": 881,
    "note": 60,
    "at": 123360,
    "duration": 480,
    "velocity": 90
  },
  {
    "id": 882,
    "note": 65,
    "at": 123360,
    "duration": 480,
    "velocity": 90
  },
  {
    "id": 883,
    "note": 40,
    "at": 123840,
    "duration": 480,
    "velocity": 90
  },
  {
    "id": 884,
    "note": 55,
    "at": 123840,
    "duration": 480,
    "velocity": 90
  },
  {
    "id": 885,
    "note": 60,
    "at": 123840,
    "duration": 480,
    "velocity": 90
  },
  {
    "id": 886,
    "note": 67,
    "at": 123840,
    "duration": 480,
    "velocity": 90
  },
  {
    "id": 887,
    "note": 38,
    "at": 124320,
    "duration": 480,
    "velocity": 90
  },
  {
    "id": 888,
    "note": 50,
    "at": 124320,
    "duration": 480,
    "velocity": 90
  },
  {
    "id": 889,
    "note": 60,
    "at": 124320,
    "duration": 480,
    "velocity": 90
  },
  {
    "id": 890,
    "note": 65,
    "at": 124320,
    "duration": 480,
    "velocity": 90
  },
  {
    "id": 891,
    "note": 69,
    "at": 124320,
    "duration": 240,
    "velocity": 90
  },
  {
    "id": 892,
    "note": 72,
    "at": 124560,
    "duration": 240,
    "velocity": 90
  },
  {
    "id": 893,
    "note": 31,
    "at": 124800,
    "duration": 240,
    "velocity": 90
  },
  {
    "id": 894,
    "note": 65,
    "at": 124800,
    "duration": 1920,
    "velocity": 90
  },
  {
    "id": 895,
    "note": 71,
    "at": 124800,
    "duration": 960,
    "velocity": 90
  },
  {
    "id": 896,
    "note": 74,
    "at": 124800,
    "duration": 960,
    "velocity": 90
  },
  {
    "id": 897,
    "note": 43,
    "at": 125040,
    "duration": 240,
    "velocity": 90
  },
  {
    "id": 898,
    "note": 50,
    "at": 125280,
    "duration": 240,
    "velocity": 90
  },
  {
    "id": 899,
    "note": 53,
    "at": 125520,
    "duration": 240,
    "velocity": 90
  },
  {
    "id": 900,
    "note": 55,
    "at": 125760,
    "duration": 240,
    "velocity": 90
  },
  {
    "id": 901,
    "note": 67,
    "at": 125760,
    "duration": 960,
    "velocity": 90
  },
  {
    "id": 902,
    "note": 59,
    "at": 126000,
    "duration": 240,
    "velocity": 90
  },
  {
    "id": 903,
    "note": 62,
    "at": 126240,
    "duration": 240,
    "velocity": 90
  },
  {
    "id": 904,
    "note": 65,
    "at": 126480,
    "duration": 240,
    "velocity": 90
  },
  {
    "id": 905,
    "note": 64,
    "at": 126720,
    "duration": 960,
    "velocity": 90
  },
  {
    "id": 906,
    "note": 67,
    "at": 126720,
    "duration": 960,
    "velocity": 90
  },
  {
    "id": 907,
    "note": 72,
    "at": 126720,
    "duration": 3840,
    "velocity": 90
  },
  {
    "id": 908,
    "note": 79,
    "at": 126720,
    "duration": 160,
    "velocity": 90
  },
  {
    "id": 909,
    "note": 77,
    "at": 126880,
    "duration": 160,
    "velocity": 90
  },
  {
    "id": 910,
    "note": 79,
    "at": 127040,
    "duration": 160,
    "velocity": 90
  },
  {
    "id": 911,
    "note": 76,
    "at": 127200,
    "duration": 960,
    "velocity": 90
  },
  {
    "id": 912,
    "note": 65,
    "at": 127680,
    "duration": 960,
    "velocity": 90
  },
  {
    "id": 913,
    "note": 69,
    "at": 127680,
    "duration": 960,
    "velocity": 90
  },
  {
    "id": 914,
    "note": 74,
    "at": 128160,
    "duration": 480,
    "velocity": 90
  },
  {
    "id": 915,
    "note": 67,
    "at": 128640,
    "duration": 960,
    "velocity": 90
  },
  {
    "id": 916,
    "note": 70,
    "at": 128640,
    "duration": 960,
    "velocity": 90
  },
  {
    "id": 917,
    "note": 76,
    "at": 128640,
    "duration": 960,
    "velocity": 90
  },
  {
    "id": 918,
    "note": 65,
    "at": 129600,
    "duration": 960,
    "velocity": 90
  },
  {
    "id": 919,
    "note": 69,
    "at": 129600,
    "duration": 960,
    "velocity": 90
  },
  {
    "id": 920,
    "note": 77,
    "at": 129600,
    "duration": 960,
    "velocity": 90
  },
  {
    "id": 921,
    "note": 64,
    "at": 130560,
    "duration": 3600,
    "velocity": 90
  },
  {
    "id": 922,
    "note": 67,
    "at": 130560,
    "duration": 1920,
    "velocity": 90
  },
  {
    "id": 923,
    "note": 72,
    "at": 130560,
    "duration": 2880,
    "velocity": 90
  },
  {
    "id": 924,
    "note": 79,
    "at": 130560,
    "duration": 160,
    "velocity": 90
  },
  {
    "id": 925,
    "note": 77,
    "at": 130720,
    "duration": 160,
    "velocity": 90
  },
  {
    "id": 926,
    "note": 79,
    "at": 130880,
    "duration": 160,
    "velocity": 90
  },
  {
    "id": 927,
    "note": 76,
    "at": 131040,
    "duration": 960,
    "velocity": 90
  },
  {
    "id": 928,
    "note": 79,
    "at": 132000,
    "duration": 480,
    "velocity": 90
  },
  {
    "id": 929,
    "note": 68,
    "at": 132480,
    "duration": 1920,
    "velocity": 90
  },
  {
    "id": 930,
    "note": 80,
    "at": 132480,
    "duration": 160,
    "velocity": 90
  },
  {
    "id": 931,
    "note": 78,
    "at": 132640,
    "duration": 160,
    "velocity": 90
  },
  {
    "id": 932,
    "note": 80,
    "at": 132800,
    "duration": 160,
    "velocity": 90
  },
  {
    "id": 933,
    "note": 76,
    "at": 132960,
    "duration": 960,
    "velocity": 90
  },
  {
    "id": 934,
    "note": 73,
    "at": 133440,
    "duration": 960,
    "velocity": 90
  },
  {
    "id": 935,
    "note": 80,
    "at": 133920,
    "duration": 480,
    "velocity": 90
  },
  {
    "id": 936,
    "note": 63,
    "at": 134160,
    "duration": 240,
    "velocity": 90
  },
  {
    "id": 937,
    "note": 61,
    "at": 134400,
    "duration": 160,
    "velocity": 90
  },
  {
    "id": 938,
    "note": 81,
    "at": 134400,
    "duration": 960,
    "velocity": 90
  },
  {
    "id": 939,
    "note": 64,
    "at": 134560,
    "duration": 160,
    "velocity": 90
  },
  {
    "id": 940,
    "note": 69,
    "at": 134720,
    "duration": 160,
    "velocity": 90
  },
  {
    "id": 941,
    "note": 73,
    "at": 134880,
    "duration": 160,
    "velocity": 90
  },
  {
    "id": 942,
    "note": 76,
    "at": 135040,
    "duration": 160,
    "velocity": 90
  },
  {
    "id": 943,
    "note": 78,
    "at": 135200,
    "duration": 160,
    "velocity": 90
  },
  {
    "id": 944,
    "note": 80,
    "at": 135360,
    "duration": 960,
    "velocity": 90
  },
  {
    "id": 945,
    "note": 75,
    "at": 135520,
    "duration": 160,
    "velocity": 90
  },
  {
    "id": 946,
    "note": 71,
    "at": 135680,
    "duration": 160,
    "velocity": 90
  },
  {
    "id": 947,
    "note": 68,
    "at": 135840,
    "duration": 160,
    "velocity": 90
  },
  {
    "id": 948,
    "note": 63,
    "at": 136000,
    "duration": 160,
    "velocity": 90
  },
  {
    "id": 949,
    "note": 59,
    "at": 136160,
    "duration": 160,
    "velocity": 90
  },
  {
    "id": 950,
    "note": 57,
    "at": 136320,
    "duration": 160,
    "velocity": 90
  },
  {
    "id": 951,
    "note": 78,
    "at": 136320,
    "duration": 960,
    "velocity": 90
  },
  {
    "id": 952,
    "note": 61,
    "at": 136480,
    "duration": 160,
    "velocity": 90
  },
  {
    "id": 953,
    "note": 66,
    "at": 136640,
    "duration": 160,
    "velocity": 90
  },
  {
    "id": 954,
    "note": 69,
    "at": 136800,
    "duration": 160,
    "velocity": 90
  },
  {
    "id": 955,
    "note": 73,
    "at": 136960,
    "duration": 160,
    "velocity": 90
  },
  {
    "id": 956,
    "note": 75,
    "at": 137120,
    "duration": 160,
    "velocity": 90
  },
  {
    "id": 957,
    "note": 76,
    "at": 137280,
    "duration": 960,
    "velocity": 90
  },
  {
    "id": 958,
    "note": 71,
    "at": 137440,
    "duration": 160,
    "velocity": 90
  },
  {
    "id": 959,
    "note": 68,
    "at": 137600,
    "duration": 160,
    "velocity": 90
  },
  {
    "id": 960,
    "note": 64,
    "at": 137760,
    "duration": 160,
    "velocity": 90
  },
  {
    "id": 961,
    "note": 59,
    "at": 137920,
    "duration": 160,
    "velocity": 90
  },
  {
    "id": 962,
    "note": 56,
    "at": 138080,
    "duration": 160,
    "velocity": 90
  },
  {
    "id": 963,
    "note": 54,
    "at": 138240,
    "duration": 960,
    "velocity": 90
  },
  {
    "id": 964,
    "note": 57,
    "at": 138400,
    "duration": 160,
    "velocity": 90
  },
  {
    "id": 965,
    "note": 61,
    "at": 138560,
    "duration": 480,
    "velocity": 90
  },
  {
    "id": 966,
    "note": 73,
    "at": 138720,
    "duration": 480,
    "velocity": 90
  },
  {
    "id": 967,
    "note": 66,
    "at": 138880,
    "duration": 160,
    "velocity": 90
  },
  {
    "id": 968,
    "note": 69,
    "at": 139040,
    "duration": 640,
    "velocity": 90
  },
  {
    "id": 969,
    "note": 52,
    "at": 139200,
    "duration": 960,
    "velocity": 90
  },
  {
    "id": 970,
    "note": 78,
    "at": 139200,
    "duration": 480,
    "velocity": 90
  },
  {
    "id": 971,
    "note": 57,
    "at": 139360,
    "duration": 160,
    "velocity": 90
  },
  {
    "id": 972,
    "note": 61,
    "at": 139520,
    "duration": 480,
    "velocity": 90
  },
  {
    "id": 973,
    "note": 73,
    "at": 139680,
    "duration": 960,
    "velocity": 90
  },
  {
    "id": 974,
    "note": 66,
    "at": 139840,
    "duration": 160,
    "velocity": 90
  },
  {
    "id": 975,
    "note": 69,
    "at": 140000,
    "duration": 640,
    "velocity": 90
  },
  {
    "id": 976,
    "note": 51,
    "at": 140160,
    "duration": 960,
    "velocity": 90
  },
  {
    "id": 977,
    "note": 57,
    "at": 140320,
    "duration": 160,
    "velocity": 90
  },
  {
    "id": 978,
    "note": 61,
    "at": 140480,
    "duration": 480,
    "velocity": 90
  },
  {
    "id": 979,
    "note": 73,
    "at": 140640,
    "duration": 480,
    "velocity": 90
  },
  {
    "id": 980,
    "note": 66,
    "at": 140800,
    "duration": 160,
    "velocity": 90
  },
  {
    "id": 981,
    "note": 69,
    "at": 140960,
    "duration": 640,
    "velocity": 90
  },
  {
    "id": 982,
    "note": 49,
    "at": 141120,
    "duration": 960,
    "velocity": 90
  },
  {
    "id": 983,
    "note": 78,
    "at": 141120,
    "duration": 480,
    "velocity": 90
  },
  {
    "id": 984,
    "note": 57,
    "at": 141280,
    "duration": 160,
    "velocity": 90
  },
  {
    "id": 985,
    "note": 64,
    "at": 141440,
    "duration": 480,
    "velocity": 90
  },
  {
    "id": 986,
    "note": 81,
    "at": 141600,
    "duration": 960,
    "velocity": 90
  },
  {
    "id": 987,
    "note": 69,
    "at": 141760,
    "duration": 160,
    "velocity": 90
  },
  {
    "id": 988,
    "note": 73,
    "at": 141920,
    "duration": 160,
    "velocity": 90
  },
  {
    "id": 989,
    "note": 47,
    "at": 142080,
    "duration": 160,
    "velocity": 90
  },
  {
    "id": 990,
    "note": 54,
    "at": 142240,
    "duration": 160,
    "velocity": 90
  },
  {
    "id": 991,
    "note": 57,
    "at": 142400,
    "duration": 160,
    "velocity": 90
  },
  {
    "id": 992,
    "note": 61,
    "at": 142560,
    "duration": 160,
    "velocity": 90
  },
  {
    "id": 993,
    "note": 81,
    "at": 142560,
    "duration": 1120,
    "velocity": 90
  },
  {
    "id": 994,
    "note": 63,
    "at": 142720,
    "duration": 160,
    "velocity": 90
  },
  {
    "id": 995,
    "note": 66,
    "at": 142880,
    "duration": 160,
    "velocity": 90
  },
  {
    "id": 996,
    "note": 69,
    "at": 143040,
    "duration": 160,
    "velocity": 90
  },
  {
    "id": 997,
    "note": 73,
    "at": 143200,
    "duration": 160,
    "velocity": 90
  },
  {
    "id": 998,
    "note": 75,
    "at": 143360,
    "duration": 160,
    "velocity": 90
  },
  {
    "id": 999,
    "note": 73,
    "at": 143520,
    "duration": 160,
    "velocity": 90
  },
  {
    "id": 1000,
    "note": 71,
    "at": 143680,
    "duration": 160,
    "velocity": 90
  },
  {
    "id": 1001,
    "note": 80,
    "at": 143680,
    "duration": 160,
    "velocity": 90
  },
  {
    "id": 1002,
    "note": 69,
    "at": 143840,
    "duration": 160,
    "velocity": 90
  },
  {
    "id": 1003,
    "note": 78,
    "at": 143840,
    "duration": 160,
    "velocity": 90
  },
  {
    "id": 1004,
    "note": 40,
    "at": 144000,
    "duration": 240,
    "velocity": 90
  },
  {
    "id": 1005,
    "note": 47,
    "at": 144240,
    "duration": 240,
    "velocity": 90
  },
  {
    "id": 1006,
    "note": 52,
    "at": 144480,
    "duration": 240,
    "velocity": 90
  },
  {
    "id": 1007,
    "note": 76,
    "at": 144480,
    "duration": 160,
    "velocity": 90
  },
  {
    "id": 1008,
    "note": 78,
    "at": 144640,
    "duration": 160,
    "velocity": 90
  },
  {
    "id": 1009,
    "note": 56,
    "at": 144720,
    "duration": 240,
    "velocity": 90
  },
  {
    "id": 1010,
    "note": 73,
    "at": 144800,
    "duration": 160,
    "velocity": 90
  },
  {
    "id": 1011,
    "note": 59,
    "at": 144960,
    "duration": 240,
    "velocity": 90
  },
  {
    "id": 1012,
    "note": 76,
    "at": 144960,
    "duration": 160,
    "velocity": 90
  },
  {
    "id": 1013,
    "note": 71,
    "at": 145120,
    "duration": 160,
    "velocity": 90
  },
  {
    "id": 1014,
    "note": 56,
    "at": 145200,
    "duration": 240,
    "velocity": 90
  },
  {
    "id": 1015,
    "note": 73,
    "at": 145280,
    "duration": 160,
    "velocity": 90
  },
  {
    "id": 1016,
    "note": 52,
    "at": 145440,
    "duration": 240,
    "velocity": 90
  },
  {
    "id": 1017,
    "note": 68,
    "at": 145440,
    "duration": 160,
    "velocity": 90
  },
  {
    "id": 1018,
    "note": 71,
    "at": 145600,
    "duration": 160,
    "velocity": 90
  },
  {
    "id": 1019,
    "note": 47,
    "at": 145680,
    "duration": 240,
    "velocity": 90
  },
  {
    "id": 1020,
    "note": 66,
    "at": 145760,
    "duration": 160,
    "velocity": 90
  },
  {
    "id": 1021,
    "note": 40,
    "at": 145920,
    "duration": 240,
    "velocity": 90
  },
  {
    "id": 1022,
    "note": 68,
    "at": 145920,
    "duration": 160,
    "velocity": 90
  },
  {
    "id": 1023,
    "note": 64,
    "at": 146080,
    "duration": 160,
    "velocity": 90
  },
  {
    "id": 1024,
    "note": 47,
    "at": 146160,
    "duration": 240,
    "velocity": 90
  },
  {
    "id": 1025,
    "note": 68,
    "at": 146240,
    "duration": 160,
    "velocity": 90
  },
  {
    "id": 1026,
    "note": 52,
    "at": 146400,
    "duration": 240,
    "velocity": 90
  },
  {
    "id": 1027,
    "note": 63,
    "at": 146400,
    "duration": 960,
    "velocity": 90
  },
  {
    "id": 1028,
    "note": 56,
    "at": 146640,
    "duration": 240,
    "velocity": 90
  },
  {
    "id": 1029,
    "note": 61,
    "at": 146880,
    "duration": 240,
    "velocity": 90
  },
  {
    "id": 1030,
    "note": 56,
    "at": 147120,
    "duration": 240,
    "velocity": 90
  },
  {
    "id": 1031,
    "note": 52,
    "at": 147360,
    "duration": 240,
    "velocity": 90
  },
  {
    "id": 1032,
    "note": 61,
    "at": 147360,
    "duration": 480,
    "velocity": 90
  },
  {
    "id": 1033,
    "note": 47,
    "at": 147600,
    "duration": 240,
    "velocity": 90
  },
  {
    "id": 1034,
    "note": 40,
    "at": 147840,
    "duration": 240,
    "velocity": 90
  },
  {
    "id": 1035,
    "note": 59,
    "at": 147840,
    "duration": 240,
    "velocity": 90
  },
  {
    "id": 1036,
    "note": 47,
    "at": 148080,
    "duration": 240,
    "velocity": 90
  },
  {
    "id": 1037,
    "note": 52,
    "at": 148320,
    "duration": 240,
    "velocity": 90
  },
  {
    "id": 1038,
    "note": 76,
    "at": 148320,
    "duration": 160,
    "velocity": 90
  },
  {
    "id": 1039,
    "note": 78,
    "at": 148480,
    "duration": 160,
    "velocity": 90
  },
  {
    "id": 1040,
    "note": 56,
    "at": 148560,
    "duration": 240,
    "velocity": 90
  },
  {
    "id": 1041,
    "note": 73,
    "at": 148640,
    "duration": 160,
    "velocity": 90
  },
  {
    "id": 1042,
    "note": 59,
    "at": 148800,
    "duration": 240,
    "velocity": 90
  },
  {
    "id": 1043,
    "note": 76,
    "at": 148800,
    "duration": 160,
    "velocity": 90
  },
  {
    "id": 1044,
    "note": 71,
    "at": 148960,
    "duration": 160,
    "velocity": 90
  },
  {
    "id": 1045,
    "note": 56,
    "at": 149040,
    "duration": 240,
    "velocity": 90
  },
  {
    "id": 1046,
    "note": 73,
    "at": 149120,
    "duration": 160,
    "velocity": 90
  },
  {
    "id": 1047,
    "note": 52,
    "at": 149280,
    "duration": 240,
    "velocity": 90
  },
  {
    "id": 1048,
    "note": 68,
    "at": 149280,
    "duration": 160,
    "velocity": 90
  },
  {
    "id": 1049,
    "note": 71,
    "at": 149440,
    "duration": 160,
    "velocity": 90
  },
  {
    "id": 1050,
    "note": 47,
    "at": 149520,
    "duration": 240,
    "velocity": 90
  },
  {
    "id": 1051,
    "note": 66,
    "at": 149600,
    "duration": 160,
    "velocity": 90
  },
  {
    "id": 1052,
    "note": 40,
    "at": 149760,
    "duration": 240,
    "velocity": 90
  },
  {
    "id": 1053,
    "note": 68,
    "at": 149760,
    "duration": 160,
    "velocity": 90
  },
  {
    "id": 1054,
    "note": 64,
    "at": 149920,
    "duration": 160,
    "velocity": 90
  },
  {
    "id": 1055,
    "note": 47,
    "at": 150000,
    "duration": 240,
    "velocity": 90
  },
  {
    "id": 1056,
    "note": 68,
    "at": 150080,
    "duration": 160,
    "velocity": 90
  },
  {
    "id": 1057,
    "note": 52,
    "at": 150240,
    "duration": 240,
    "velocity": 90
  },
  {
    "id": 1058,
    "note": 63,
    "at": 150240,
    "duration": 960,
    "velocity": 90
  },
  {
    "id": 1059,
    "note": 56,
    "at": 150480,
    "duration": 240,
    "velocity": 90
  },
  {
    "id": 1060,
    "note": 61,
    "at": 150720,
    "duration": 240,
    "velocity": 90
  },
  {
    "id": 1061,
    "note": 56,
    "at": 150960,
    "duration": 240,
    "velocity": 90
  },
  {
    "id": 1062,
    "note": 52,
    "at": 151200,
    "duration": 240,
    "velocity": 90
  },
  {
    "id": 1063,
    "note": 61,
    "at": 151200,
    "duration": 480,
    "velocity": 90
  },
  {
    "id": 1064,
    "note": 47,
    "at": 151440,
    "duration": 240,
    "velocity": 90
  },
  {
    "id": 1065,
    "note": 42,
    "at": 151680,
    "duration": 240,
    "velocity": 90
  },
  {
    "id": 1066,
    "note": 59,
    "at": 151680,
    "duration": 160,
    "velocity": 90
  },
  {
    "id": 1067,
    "note": 57,
    "at": 151840,
    "duration": 160,
    "velocity": 90
  },
  {
    "id": 1068,
    "note": 49,
    "at": 151920,
    "duration": 240,
    "velocity": 90
  },
  {
    "id": 1069,
    "note": 59,
    "at": 152000,
    "duration": 160,
    "velocity": 90
  },
  {
    "id": 1070,
    "note": 52,
    "at": 152160,
    "duration": 240,
    "velocity": 90
  },
  {
    "id": 1071,
    "note": 61,
    "at": 152160,
    "duration": 720,
    "velocity": 90
  },
  {
    "id": 1072,
    "note": 54,
    "at": 152400,
    "duration": 240,
    "velocity": 90
  },
  {
    "id": 1073,
    "note": 57,
    "at": 152640,
    "duration": 240,
    "velocity": 90
  },
  {
    "id": 1074,
    "note": 54,
    "at": 152880,
    "duration": 240,
    "velocity": 90
  },
  {
    "id": 1075,
    "note": 64,
    "at": 152880,
    "duration": 240,
    "velocity": 90
  },
  {
    "id": 1076,
    "note": 52,
    "at": 153120,
    "duration": 240,
    "velocity": 90
  },
  {
    "id": 1077,
    "note": 63,
    "at": 153120,
    "duration": 240,
    "velocity": 90
  },
  {
    "id": 1078,
    "note": 49,
    "at": 153360,
    "duration": 240,
    "velocity": 90
  },
  {
    "id": 1079,
    "note": 64,
    "at": 153360,
    "duration": 240,
    "velocity": 90
  },
  {
    "id": 1080,
    "note": 44,
    "at": 153600,
    "duration": 240,
    "velocity": 90
  },
  {
    "id": 1081,
    "note": 61,
    "at": 153600,
    "duration": 480,
    "velocity": 90
  },
  {
    "id": 1082,
    "note": 49,
    "at": 153840,
    "duration": 240,
    "velocity": 90
  },
  {
    "id": 1083,
    "note": 52,
    "at": 154080,
    "duration": 240,
    "velocity": 90
  },
  {
    "id": 1084,
    "note": 68,
    "at": 154080,
    "duration": 960,
    "velocity": 90
  },
  {
    "id": 1085,
    "note": 56,
    "at": 154320,
    "duration": 240,
    "velocity": 90
  },
  {
    "id": 1086,
    "note": 59,
    "at": 154560,
    "duration": 240,
    "velocity": 90
  },
  {
    "id": 1087,
    "note": 56,
    "at": 154800,
    "duration": 240,
    "velocity": 90
  },
  {
    "id": 1088,
    "note": 52,
    "at": 155040,
    "duration": 240,
    "velocity": 90
  },
  {
    "id": 1089,
    "note": 64,
    "at": 155040,
    "duration": 480,
    "velocity": 90
  },
  {
    "id": 1090,
    "note": 49,
    "at": 155280,
    "duration": 240,
    "velocity": 90
  },
  {
    "id": 1091,
    "note": 45,
    "at": 155520,
    "duration": 240,
    "velocity": 90
  },
  {
    "id": 1092,
    "note": 63,
    "at": 155520,
    "duration": 160,
    "velocity": 90
  },
  {
    "id": 1093,
    "note": 61,
    "at": 155680,
    "duration": 160,
    "velocity": 90
  },
  {
    "id": 1094,
    "note": 52,
    "at": 155760,
    "duration": 240,
    "velocity": 90
  },
  {
    "id": 1095,
    "note": 63,
    "at": 155840,
    "duration": 160,
    "velocity": 90
  },
  {
    "id": 1096,
    "note": 54,
    "at": 156000,
    "duration": 240,
    "velocity": 90
  },
  {
    "id": 1097,
    "note": 64,
    "at": 156000,
    "duration": 720,
    "velocity": 90
  },
  {
    "id": 1098,
    "note": 57,
    "at": 156240,
    "duration": 240,
    "velocity": 90
  },
  {
    "id": 1099,
    "note": 61,
    "at": 156480,
    "duration": 240,
    "velocity": 90
  },
  {
    "id": 1100,
    "note": 57,
    "at": 156720,
    "duration": 240,
    "velocity": 90
  },
  {
    "id": 1101,
    "note": 68,
    "at": 156720,
    "duration": 240,
    "velocity": 90
  },
  {
    "id": 1102,
    "note": 54,
    "at": 156960,
    "duration": 240,
    "velocity": 90
  },
  {
    "id": 1103,
    "note": 66,
    "at": 156960,
    "duration": 240,
    "velocity": 90
  },
  {
    "id": 1104,
    "note": 52,
    "at": 157200,
    "duration": 240,
    "velocity": 90
  },
  {
    "id": 1105,
    "note": 68,
    "at": 157200,
    "duration": 240,
    "velocity": 90
  },
  {
    "id": 1106,
    "note": 46,
    "at": 157440,
    "duration": 240,
    "velocity": 90
  },
  {
    "id": 1107,
    "note": 64,
    "at": 157440,
    "duration": 480,
    "velocity": 90
  },
  {
    "id": 1108,
    "note": 52,
    "at": 157680,
    "duration": 240,
    "velocity": 90
  },
  {
    "id": 1109,
    "note": 56,
    "at": 157920,
    "duration": 240,
    "velocity": 90
  },
  {
    "id": 1110,
    "note": 73,
    "at": 157920,
    "duration": 960,
    "velocity": 90
  },
  {
    "id": 1111,
    "note": 61,
    "at": 158160,
    "duration": 240,
    "velocity": 90
  },
  {
    "id": 1112,
    "note": 49,
    "at": 158400,
    "duration": 240,
    "velocity": 90
  },
  {
    "id": 1113,
    "note": 54,
    "at": 158640,
    "duration": 240,
    "velocity": 90
  },
  {
    "id": 1114,
    "note": 58,
    "at": 158880,
    "duration": 240,
    "velocity": 90
  },
  {
    "id": 1115,
    "note": 70,
    "at": 158880,
    "duration": 160,
    "velocity": 90
  },
  {
    "id": 1116,
    "note": 73,
    "at": 159040,
    "duration": 160,
    "velocity": 90
  },
  {
    "id": 1117,
    "note": 64,
    "at": 159120,
    "duration": 240,
    "velocity": 90
  },
  {
    "id": 1118,
    "note": 70,
    "at": 159200,
    "duration": 160,
    "velocity": 90
  },
  {
    "id": 1119,
    "note": 52,
    "at": 159360,
    "duration": 240,
    "velocity": 90
  },
  {
    "id": 1120,
    "note": 68,
    "at": 159360,
    "duration": 480,
    "velocity": 90
  },
  {
    "id": 1121,
    "note": 58,
    "at": 159600,
    "duration": 240,
    "velocity": 90
  },
  {
    "id": 1122,
    "note": 61,
    "at": 159840,
    "duration": 240,
    "velocity": 90
  },
  {
    "id": 1123,
    "note": 76,
    "at": 159840,
    "duration": 960,
    "velocity": 90
  },
  {
    "id": 1124,
    "note": 68,
    "at": 160080,
    "duration": 240,
    "velocity": 90
  },
  {
    "id": 1125,
    "note": 54,
    "at": 160320,
    "duration": 240,
    "velocity": 90
  },
  {
    "id": 1126,
    "note": 61,
    "at": 160560,
    "duration": 240,
    "velocity": 90
  },
  {
    "id": 1127,
    "note": 64,
    "at": 160800,
    "duration": 240,
    "velocity": 90
  },
  {
    "id": 1128,
    "note": 73,
    "at": 160800,
    "duration": 160,
    "velocity": 90
  },
  {
    "id": 1129,
    "note": 76,
    "at": 160960,
    "duration": 160,
    "velocity": 90
  },
  {
    "id": 1130,
    "note": 70,
    "at": 161040,
    "duration": 240,
    "velocity": 90
  },
  {
    "id": 1131,
    "note": 73,
    "at": 161120,
    "duration": 160,
    "velocity": 90
  },
  {
    "id": 1132,
    "note": 58,
    "at": 161280,
    "duration": 240,
    "velocity": 90
  },
  {
    "id": 1133,
    "note": 80,
    "at": 161280,
    "duration": 720,
    "velocity": 90
  },
  {
    "id": 1134,
    "note": 64,
    "at": 161520,
    "duration": 240,
    "velocity": 90
  },
  {
    "id": 1135,
    "note": 68,
    "at": 161760,
    "duration": 240,
    "velocity": 90
  },
  {
    "id": 1136,
    "note": 73,
    "at": 162000,
    "duration": 240,
    "velocity": 90
  },
  {
    "id": 1137,
    "note": 78,
    "at": 162000,
    "duration": 240,
    "velocity": 90
  },
  {
    "id": 1138,
    "note": 61,
    "at": 162240,
    "duration": 240,
    "velocity": 90
  },
  {
    "id": 1139,
    "note": 80,
    "at": 162240,
    "duration": 720,
    "velocity": 90
  },
  {
    "id": 1140,
    "note": 66,
    "at": 162480,
    "duration": 240,
    "velocity": 90
  },
  {
    "id": 1141,
    "note": 70,
    "at": 162720,
    "duration": 240,
    "velocity": 90
  },
  {
    "id": 1142,
    "note": 76,
    "at": 162960,
    "duration": 240,
    "velocity": 90
  },
  {
    "id": 1143,
    "note": 78,
    "at": 162960,
    "duration": 240,
    "velocity": 90
  },
  {
    "id": 1144,
    "note": 58,
    "at": 163200,
    "duration": 240,
    "velocity": 90
  },
  {
    "id": 1145,
    "note": 80,
    "at": 163200,
    "duration": 720,
    "velocity": 90
  },
  {
    "id": 1146,
    "note": 64,
    "at": 163440,
    "duration": 240,
    "velocity": 90
  },
  {
    "id": 1147,
    "note": 68,
    "at": 163680,
    "duration": 240,
    "velocity": 90
  },
  {
    "id": 1148,
    "note": 73,
    "at": 163920,
    "duration": 240,
    "velocity": 90
  },
  {
    "id": 1149,
    "note": 78,
    "at": 163920,
    "duration": 240,
    "velocity": 90
  },
  {
    "id": 1150,
    "note": 61,
    "at": 164160,
    "duration": 240,
    "velocity": 90
  },
  {
    "id": 1151,
    "note": 80,
    "at": 164160,
    "duration": 240,
    "velocity": 90
  },
  {
    "id": 1152,
    "note": 66,
    "at": 164400,
    "duration": 240,
    "velocity": 90
  },
  {
    "id": 1153,
    "note": 78,
    "at": 164400,
    "duration": 480,
    "velocity": 90
  },
  {
    "id": 1154,
    "note": 70,
    "at": 164640,
    "duration": 240,
    "velocity": 90
  },
  {
    "id": 1155,
    "note": 76,
    "at": 164880,
    "duration": 240,
    "velocity": 90
  },
  {
    "id": 1156,
    "note": 80,
    "at": 164880,
    "duration": 240,
    "velocity": 90
  },
  {
    "id": 1157,
    "note": 61,
    "at": 165120,
    "duration": 160,
    "velocity": 90
  },
  {
    "id": 1158,
    "note": 81,
    "at": 165120,
    "duration": 960,
    "velocity": 90
  },
  {
    "id": 1159,
    "note": 64,
    "at": 165280,
    "duration": 160,
    "velocity": 90
  },
  {
    "id": 1160,
    "note": 69,
    "at": 165440,
    "duration": 160,
    "velocity": 90
  },
  {
    "id": 1161,
    "note": 73,
    "at": 165600,
    "duration": 160,
    "velocity": 90
  },
  {
    "id": 1162,
    "note": 76,
    "at": 165760,
    "duration": 160,
    "velocity": 90
  },
  {
    "id": 1163,
    "note": 78,
    "at": 165920,
    "duration": 160,
    "velocity": 90
  },
  {
    "id": 1164,
    "note": 80,
    "at": 166080,
    "duration": 960,
    "velocity": 90
  },
  {
    "id": 1165,
    "note": 75,
    "at": 166240,
    "duration": 160,
    "velocity": 90
  },
  {
    "id": 1166,
    "note": 71,
    "at": 166400,
    "duration": 160,
    "velocity": 90
  },
  {
    "id": 1167,
    "note": 68,
    "at": 166560,
    "duration": 160,
    "velocity": 90
  },
  {
    "id": 1168,
    "note": 63,
    "at": 166720,
    "duration": 160,
    "velocity": 90
  },
  {
    "id": 1169,
    "note": 59,
    "at": 166880,
    "duration": 160,
    "velocity": 90
  },
  {
    "id": 1170,
    "note": 57,
    "at": 167040,
    "duration": 160,
    "velocity": 90
  },
  {
    "id": 1171,
    "note": 78,
    "at": 167040,
    "duration": 960,
    "velocity": 90
  },
  {
    "id": 1172,
    "note": 61,
    "at": 167200,
    "duration": 160,
    "velocity": 90
  },
  {
    "id": 1173,
    "note": 66,
    "at": 167360,
    "duration": 160,
    "velocity": 90
  },
  {
    "id": 1174,
    "note": 69,
    "at": 167520,
    "duration": 160,
    "velocity": 90
  },
  {
    "id": 1175,
    "note": 73,
    "at": 167680,
    "duration": 160,
    "velocity": 90
  },
  {
    "id": 1176,
    "note": 75,
    "at": 167840,
    "duration": 160,
    "velocity": 90
  },
  {
    "id": 1177,
    "note": 76,
    "at": 168000,
    "duration": 960,
    "velocity": 90
  },
  {
    "id": 1178,
    "note": 71,
    "at": 168160,
    "duration": 160,
    "velocity": 90
  },
  {
    "id": 1179,
    "note": 68,
    "at": 168320,
    "duration": 160,
    "velocity": 90
  },
  {
    "id": 1180,
    "note": 64,
    "at": 168480,
    "duration": 160,
    "velocity": 90
  },
  {
    "id": 1181,
    "note": 59,
    "at": 168640,
    "duration": 160,
    "velocity": 90
  },
  {
    "id": 1182,
    "note": 56,
    "at": 168800,
    "duration": 160,
    "velocity": 90
  },
  {
    "id": 1183,
    "note": 61,
    "at": 168960,
    "duration": 960,
    "velocity": 90
  },
  {
    "id": 1184,
    "note": 81,
    "at": 168960,
    "duration": 480,
    "velocity": 90
  },
  {
    "id": 1185,
    "note": 64,
    "at": 169120,
    "duration": 160,
    "velocity": 90
  },
  {
    "id": 1186,
    "note": 69,
    "at": 169280,
    "duration": 160,
    "velocity": 90
  },
  {
    "id": 1187,
    "note": 73,
    "at": 169440,
    "duration": 160,
    "velocity": 90
  },
  {
    "id": 1188,
    "note": 76,
    "at": 169440,
    "duration": 480,
    "velocity": 90
  },
  {
    "id": 1189,
    "note": 83,
    "at": 169440,
    "duration": 240,
    "velocity": 90
  },
  {
    "id": 1190,
    "note": 69,
    "at": 169600,
    "duration": 160,
    "velocity": 90
  },
  {
    "id": 1191,
    "note": 85,
    "at": 169680,
    "duration": 240,
    "velocity": 90
  },
  {
    "id": 1192,
    "note": 64,
    "at": 169760,
    "duration": 160,
    "velocity": 90
  },
  {
    "id": 1193,
    "note": 59,
    "at": 169920,
    "duration": 960,
    "velocity": 90
  },
  {
    "id": 1194,
    "note": 81,
    "at": 169920,
    "duration": 240,
    "velocity": 90
  },
  {
    "id": 1195,
    "note": 63,
    "at": 170080,
    "duration": 160,
    "velocity": 90
  },
  {
    "id": 1196,
    "note": 80,
    "at": 170160,
    "duration": 240,
    "velocity": 90
  },
  {
    "id": 1197,
    "note": 68,
    "at": 170240,
    "duration": 160,
    "velocity": 90
  },
  {
    "id": 1198,
    "note": 71,
    "at": 170400,
    "duration": 160,
    "velocity": 90
  },
  {
    "id": 1199,
    "note": 75,
    "at": 170400,
    "duration": 480,
    "velocity": 90
  },
  {
    "id": 1200,
    "note": 81,
    "at": 170400,
    "duration": 240,
    "velocity": 90
  },
  {
    "id": 1201,
    "note": 68,
    "at": 170560,
    "duration": 160,
    "velocity": 90
  },
  {
    "id": 1202,
    "note": 80,
    "at": 170640,
    "duration": 720,
    "velocity": 90
  },
  {
    "id": 1203,
    "note": 63,
    "at": 170720,
    "duration": 160,
    "velocity": 90
  },
  {
    "id": 1204,
    "note": 57,
    "at": 170880,
    "duration": 960,
    "velocity": 90
  },
  {
    "id": 1205,
    "note": 73,
    "at": 170880,
    "duration": 960,
    "velocity": 90
  },
  {
    "id": 1206,
    "note": 61,
    "at": 171040,
    "duration": 160,
    "velocity": 90
  },
  {
    "id": 1207,
    "note": 66,
    "at": 171200,
    "duration": 160,
    "velocity": 90
  },
  {
    "id": 1208,
    "note": 69,
    "at": 171360,
    "duration": 160,
    "velocity": 90
  },
  {
    "id": 1209,
    "note": 78,
    "at": 171360,
    "duration": 960,
    "velocity": 90
  },
  {
    "id": 1210,
    "note": 66,
    "at": 171520,
    "duration": 160,
    "velocity": 90
  },
  {
    "id": 1211,
    "note": 61,
    "at": 171680,
    "duration": 160,
    "velocity": 90
  },
  {
    "id": 1212,
    "note": 56,
    "at": 171840,
    "duration": 960,
    "velocity": 90
  },
  {
    "id": 1213,
    "note": 71,
    "at": 171840,
    "duration": 960,
    "velocity": 90
  },
  {
    "id": 1214,
    "note": 59,
    "at": 172000,
    "duration": 160,
    "velocity": 90
  },
  {
    "id": 1215,
    "note": 64,
    "at": 172160,
    "duration": 160,
    "velocity": 90
  },
  {
    "id": 1216,
    "note": 68,
    "at": 172320,
    "duration": 160,
    "velocity": 90
  },
  {
    "id": 1217,
    "note": 76,
    "at": 172320,
    "duration": 720,
    "velocity": 90
  },
  {
    "id": 1218,
    "note": 64,
    "at": 172480,
    "duration": 160,
    "velocity": 90
  },
  {
    "id": 1219,
    "note": 59,
    "at": 172640,
    "duration": 160,
    "velocity": 90
  },
  {
    "id": 1220,
    "note": 54,
    "at": 172800,
    "duration": 960,
    "velocity": 90
  },
  {
    "id": 1221,
    "note": 57,
    "at": 172960,
    "duration": 160,
    "velocity": 90
  },
  {
    "id": 1222,
    "note": 74,
    "at": 173040,
    "duration": 240,
    "velocity": 90
  },
  {
    "id": 1223,
    "note": 62,
    "at": 173120,
    "duration": 160,
    "velocity": 90
  },
  {
    "id": 1224,
    "note": 66,
    "at": 173280,
    "duration": 160,
    "velocity": 90
  },
  {
    "id": 1225,
    "note": 69,
    "at": 173280,
    "duration": 480,
    "velocity": 90
  },
  {
    "id": 1226,
    "note": 76,
    "at": 173280,
    "duration": 240,
    "velocity": 90
  },
  {
    "id": 1227,
    "note": 62,
    "at": 173440,
    "duration": 160,
    "velocity": 90
  },
  {
    "id": 1228,
    "note": 78,
    "at": 173520,
    "duration": 240,
    "velocity": 90
  },
  {
    "id": 1229,
    "note": 57,
    "at": 173600,
    "duration": 160,
    "velocity": 90
  },
  {
    "id": 1230,
    "note": 52,
    "at": 173760,
    "duration": 960,
    "velocity": 90
  },
  {
    "id": 1231,
    "note": 74,
    "at": 173760,
    "duration": 240,
    "velocity": 90
  },
  {
    "id": 1232,
    "note": 56,
    "at": 173920,
    "duration": 160,
    "velocity": 90
  },
  {
    "id": 1233,
    "note": 73,
    "at": 174000,
    "duration": 240,
    "velocity": 90
  },
  {
    "id": 1234,
    "note": 61,
    "at": 174080,
    "duration": 160,
    "velocity": 90
  },
  {
    "id": 1235,
    "note": 64,
    "at": 174240,
    "duration": 160,
    "velocity": 90
  },
  {
    "id": 1236,
    "note": 68,
    "at": 174240,
    "duration": 480,
    "velocity": 90
  },
  {
    "id": 1237,
    "note": 74,
    "at": 174240,
    "duration": 240,
    "velocity": 90
  },
  {
    "id": 1238,
    "note": 61,
    "at": 174400,
    "duration": 160,
    "velocity": 90
  },
  {
    "id": 1239,
    "note": 73,
    "at": 174480,
    "duration": 720,
    "velocity": 90
  },
  {
    "id": 1240,
    "note": 56,
    "at": 174560,
    "duration": 160,
    "velocity": 90
  },
  {
    "id": 1241,
    "note": 50,
    "at": 174720,
    "duration": 960,
    "velocity": 90
  },
  {
    "id": 1242,
    "note": 66,
    "at": 174720,
    "duration": 960,
    "velocity": 90
  },
  {
    "id": 1243,
    "note": 54,
    "at": 174880,
    "duration": 160,
    "velocity": 90
  },
  {
    "id": 1244,
    "note": 59,
    "at": 175040,
    "duration": 160,
    "velocity": 90
  },
  {
    "id": 1245,
    "note": 62,
    "at": 175200,
    "duration": 160,
    "velocity": 90
  },
  {
    "id": 1246,
    "note": 71,
    "at": 175200,
    "duration": 960,
    "velocity": 90
  },
  {
    "id": 1247,
    "note": 59,
    "at": 175360,
    "duration": 160,
    "velocity": 90
  },
  {
    "id": 1248,
    "note": 54,
    "at": 175520,
    "duration": 160,
    "velocity": 90
  },
  {
    "id": 1249,
    "note": 49,
    "at": 175680,
    "duration": 960,
    "velocity": 90
  },
  {
    "id": 1250,
    "note": 64,
    "at": 175680,
    "duration": 960,
    "velocity": 90
  },
  {
    "id": 1251,
    "note": 52,
    "at": 175840,
    "duration": 160,
    "velocity": 90
  },
  {
    "id": 1252,
    "note": 57,
    "at": 176000,
    "duration": 160,
    "velocity": 90
  },
  {
    "id": 1253,
    "note": 61,
    "at": 176160,
    "duration": 160,
    "velocity": 90
  },
  {
    "id": 1254,
    "note": 69,
    "at": 176160,
    "duration": 720,
    "velocity": 90
  },
  {
    "id": 1255,
    "note": 57,
    "at": 176320,
    "duration": 160,
    "velocity": 90
  },
  {
    "id": 1256,
    "note": 52,
    "at": 176480,
    "duration": 160,
    "velocity": 90
  },
  {
    "id": 1257,
    "note": 47,
    "at": 176640,
    "duration": 960,
    "velocity": 90
  },
  {
    "id": 1258,
    "note": 62,
    "at": 176640,
    "duration": 960,
    "velocity": 90
  },
  {
    "id": 1259,
    "note": 53,
    "at": 176800,
    "duration": 160,
    "velocity": 90
  },
  {
    "id": 1260,
    "note": 68,
    "at": 176880,
    "duration": 240,
    "velocity": 90
  },
  {
    "id": 1261,
    "note": 56,
    "at": 176960,
    "duration": 160,
    "velocity": 90
  },
  {
    "id": 1262,
    "note": 59,
    "at": 177120,
    "duration": 160,
    "velocity": 90
  },
  {
    "id": 1263,
    "note": 69,
    "at": 177120,
    "duration": 240,
    "velocity": 90
  },
  {
    "id": 1264,
    "note": 56,
    "at": 177280,
    "duration": 160,
    "velocity": 90
  },
  {
    "id": 1265,
    "note": 68,
    "at": 177360,
    "duration": 240,
    "velocity": 90
  },
  {
    "id": 1266,
    "note": 53,
    "at": 177440,
    "duration": 160,
    "velocity": 90
  },
  {
    "id": 1267,
    "note": 45,
    "at": 177600,
    "duration": 960,
    "velocity": 90
  },
  {
    "id": 1268,
    "note": 61,
    "at": 177600,
    "duration": 960,
    "velocity": 90
  },
  {
    "id": 1269,
    "note": 73,
    "at": 177600,
    "duration": 240,
    "velocity": 90
  },
  {
    "id": 1270,
    "note": 49,
    "at": 177760,
    "duration": 160,
    "velocity": 90
  },
  {
    "id": 1271,
    "note": 69,
    "at": 177840,
    "duration": 240,
    "velocity": 90
  },
  {
    "id": 1272,
    "note": 54,
    "at": 177920,
    "duration": 160,
    "velocity": 90
  },
  {
    "id": 1273,
    "note": 57,
    "at": 178080,
    "duration": 160,
    "velocity": 90
  },
  {
    "id": 1274,
    "note": 66,
    "at": 178080,
    "duration": 720,
    "velocity": 90
  },
  {
    "id": 1275,
    "note": 54,
    "at": 178240,
    "duration": 160,
    "velocity": 90
  },
  {
    "id": 1276,
    "note": 49,
    "at": 178400,
    "duration": 160,
    "velocity": 90
  },
  {
    "id": 1277,
    "note": 44,
    "at": 357120,
    "duration": 960,
    "velocity": 90
  },
  {
    "id": 1278,
    "note": 59,
    "at": 357120,
    "duration": 960,
    "velocity": 90
  },
  {
    "id": 1279,
    "note": 47,
    "at": 357280,
    "duration": 160,
    "velocity": 90
  },
  {
    "id": 1280,
    "note": 64,
    "at": 357360,
    "duration": 240,
    "velocity": 90
  },
  {
    "id": 1281,
    "note": 52,
    "at": 357440,
    "duration": 160,
    "velocity": 90
  },
  {
    "id": 1282,
    "note": 56,
    "at": 357600,
    "duration": 160,
    "velocity": 90
  },
  {
    "id": 1283,
    "note": 66,
    "at": 357600,
    "duration": 240,
    "velocity": 90
  },
  {
    "id": 1284,
    "note": 52,
    "at": 357760,
    "duration": 160,
    "velocity": 90
  },
  {
    "id": 1285,
    "note": 64,
    "at": 357840,
    "duration": 240,
    "velocity": 90
  },
  {
    "id": 1286,
    "note": 47,
    "at": 357920,
    "duration": 160,
    "velocity": 90
  },
  {
    "id": 1287,
    "note": 42,
    "at": 180480,
    "duration": 160,
    "velocity": 90
  },
  {
    "id": 1288,
    "note": 69,
    "at": 180480,
    "duration": 3840,
    "velocity": 90
  },
  {
    "id": 1289,
    "note": 49,
    "at": 180640,
    "duration": 160,
    "velocity": 90
  },
  {
    "id": 1290,
    "note": 52,
    "at": 180800,
    "duration": 160,
    "velocity": 90
  },
  {
    "id": 1291,
    "note": 54,
    "at": 180960,
    "duration": 160,
    "velocity": 90
  },
  {
    "id": 1292,
    "note": 57,
    "at": 181120,
    "duration": 160,
    "velocity": 90
  },
  {
    "id": 1293,
    "note": 59,
    "at": 181280,
    "duration": 160,
    "velocity": 90
  },
  {
    "id": 1294,
    "note": 61,
    "at": 181440,
    "duration": 160,
    "velocity": 90
  },
  {
    "id": 1295,
    "note": 64,
    "at": 181600,
    "duration": 160,
    "velocity": 90
  },
  {
    "id": 1296,
    "note": 71,
    "at": 181920,
    "duration": 160,
    "velocity": 90
  },
  {
    "id": 1297,
    "note": 73,
    "at": 182080,
    "duration": 160,
    "velocity": 90
  },
  {
    "id": 1298,
    "note": 76,
    "at": 182240,
    "duration": 160,
    "velocity": 90
  },
  {
    "id": 1299,
    "note": 81,
    "at": 182400,
    "duration": 160,
    "velocity": 90
  },
  {
    "id": 1300,
    "note": 83,
    "at": 182560,
    "duration": 160,
    "velocity": 90
  },
  {
    "id": 1301,
    "note": 85,
    "at": 182720,
    "duration": 160,
    "velocity": 90
  },
  {
    "id": 1302,
    "note": 88,
    "at": 182880,
    "duration": 160,
    "velocity": 90
  },
  {
    "id": 1303,
    "note": 85,
    "at": 183040,
    "duration": 160,
    "velocity": 90
  },
  {
    "id": 1304,
    "note": 83,
    "at": 183200,
    "duration": 160,
    "velocity": 90
  },
  {
    "id": 1305,
    "note": 81,
    "at": 183360,
    "duration": 160,
    "velocity": 90
  },
  {
    "id": 1306,
    "note": 76,
    "at": 183520,
    "duration": 160,
    "velocity": 90
  },
  {
    "id": 1307,
    "note": 73,
    "at": 183680,
    "duration": 160,
    "velocity": 90
  },
  {
    "id": 1308,
    "note": 71,
    "at": 183840,
    "duration": 160,
    "velocity": 90
  },
  {
    "id": 1309,
    "note": 64,
    "at": 184160,
    "duration": 160,
    "velocity": 90
  },
  {
    "id": 1310,
    "note": 35,
    "at": 184320,
    "duration": 160,
    "velocity": 90
  },
  {
    "id": 1311,
    "note": 68,
    "at": 184320,
    "duration": 1920,
    "velocity": 90
  },
  {
    "id": 1312,
    "note": 47,
    "at": 184480,
    "duration": 160,
    "velocity": 90
  },
  {
    "id": 1313,
    "note": 51,
    "at": 184640,
    "duration": 160,
    "velocity": 90
  },
  {
    "id": 1314,
    "note": 56,
    "at": 184800,
    "duration": 160,
    "velocity": 90
  },
  {
    "id": 1315,
    "note": 59,
    "at": 184960,
    "duration": 160,
    "velocity": 90
  },
  {
    "id": 1316,
    "note": 63,
    "at": 185120,
    "duration": 160,
    "velocity": 90
  },
  {
    "id": 1317,
    "note": 71,
    "at": 185440,
    "duration": 160,
    "velocity": 90
  },
  {
    "id": 1318,
    "note": 75,
    "at": 185600,
    "duration": 160,
    "velocity": 90
  },
  {
    "id": 1319,
    "note": 80,
    "at": 185760,
    "duration": 160,
    "velocity": 90
  },
  {
    "id": 1320,
    "note": 83,
    "at": 185920,
    "duration": 160,
    "velocity": 90
  },
  {
    "id": 1321,
    "note": 71,
    "at": 186080,
    "duration": 160,
    "velocity": 90
  },
  {
    "id": 1322,
    "note": 35,
    "at": 186240,
    "duration": 160,
    "velocity": 90
  },
  {
    "id": 1323,
    "note": 66,
    "at": 186240,
    "duration": 1920,
    "velocity": 90
  },
  {
    "id": 1324,
    "note": 47,
    "at": 186400,
    "duration": 160,
    "velocity": 90
  },
  {
    "id": 1325,
    "note": 51,
    "at": 186560,
    "duration": 160,
    "velocity": 90
  },
  {
    "id": 1326,
    "note": 57,
    "at": 186720,
    "duration": 160,
    "velocity": 90
  },
  {
    "id": 1327,
    "note": 59,
    "at": 186880,
    "duration": 160,
    "velocity": 90
  },
  {
    "id": 1328,
    "note": 63,
    "at": 187040,
    "duration": 160,
    "velocity": 90
  },
  {
    "id": 1329,
    "note": 69,
    "at": 187200,
    "duration": 160,
    "velocity": 90
  },
  {
    "id": 1330,
    "note": 71,
    "at": 187360,
    "duration": 160,
    "velocity": 90
  },
  {
    "id": 1331,
    "note": 75,
    "at": 187520,
    "duration": 160,
    "velocity": 90
  },
  {
    "id": 1332,
    "note": 81,
    "at": 187680,
    "duration": 160,
    "velocity": 90
  },
  {
    "id": 1333,
    "note": 83,
    "at": 187840,
    "duration": 160,
    "velocity": 90
  },
  {
    "id": 1334,
    "note": 71,
    "at": 188000,
    "duration": 160,
    "velocity": 90
  },
  {
    "id": 1335,
    "note": 40,
    "at": 188160,
    "duration": 240,
    "velocity": 90
  },
  {
    "id": 1336,
    "note": 64,
    "at": 188160,
    "duration": 480,
    "velocity": 90
  },
  {
    "id": 1337,
    "note": 47,
    "at": 188400,
    "duration": 240,
    "velocity": 90
  },
  {
    "id": 1338,
    "note": 52,
    "at": 188640,
    "duration": 240,
    "velocity": 90
  },
  {
    "id": 1339,
    "note": 88,
    "at": 188640,
    "duration": 160,
    "velocity": 90
  },
  {
    "id": 1340,
    "note": 90,
    "at": 188800,
    "duration": 160,
    "velocity": 90
  },
  {
    "id": 1341,
    "note": 56,
    "at": 188880,
    "duration": 240,
    "velocity": 90
  },
  {
    "id": 1342,
    "note": 85,
    "at": 188960,
    "duration": 160,
    "velocity": 90
  },
  {
    "id": 1343,
    "note": 59,
    "at": 189120,
    "duration": 240,
    "velocity": 90
  },
  {
    "id": 1344,
    "note": 88,
    "at": 189120,
    "duration": 160,
    "velocity": 90
  },
  {
    "id": 1345,
    "note": 83,
    "at": 189280,
    "duration": 160,
    "velocity": 90
  },
  {
    "id": 1346,
    "note": 56,
    "at": 189360,
    "duration": 240,
    "velocity": 90
  },
  {
    "id": 1347,
    "note": 85,
    "at": 189440,
    "duration": 160,
    "velocity": 90
  },
  {
    "id": 1348,
    "note": 52,
    "at": 189600,
    "duration": 240,
    "velocity": 90
  },
  {
    "id": 1349,
    "note": 80,
    "at": 189600,
    "duration": 160,
    "velocity": 90
  },
  {
    "id": 1350,
    "note": 83,
    "at": 189760,
    "duration": 160,
    "velocity": 90
  },
  {
    "id": 1351,
    "note": 59,
    "at": 189840,
    "duration": 240,
    "velocity": 90
  },
  {
    "id": 1352,
    "note": 78,
    "at": 189920,
    "duration": 160,
    "velocity": 90
  },
  {
    "id": 1353,
    "note": 40,
    "at": 190080,
    "duration": 240,
    "velocity": 90
  },
  {
    "id": 1354,
    "note": 80,
    "at": 190080,
    "duration": 160,
    "velocity": 90
  },
  {
    "id": 1355,
    "note": 76,
    "at": 190240,
    "duration": 160,
    "velocity": 90
  },
  {
    "id": 1356,
    "note": 49,
    "at": 190320,
    "duration": 240,
    "velocity": 90
  },
  {
    "id": 1357,
    "note": 80,
    "at": 190400,
    "duration": 160,
    "velocity": 90
  },
  {
    "id": 1358,
    "note": 52,
    "at": 190560,
    "duration": 240,
    "velocity": 90
  },
  {
    "id": 1359,
    "note": 75,
    "at": 190560,
    "duration": 960,
    "velocity": 90
  },
  {
    "id": 1360,
    "note": 56,
    "at": 190800,
    "duration": 240,
    "velocity": 90
  },
  {
    "id": 1361,
    "note": 61,
    "at": 191040,
    "duration": 240,
    "velocity": 90
  },
  {
    "id": 1362,
    "note": 56,
    "at": 191280,
    "duration": 240,
    "velocity": 90
  },
  {
    "id": 1363,
    "note": 52,
    "at": 191520,
    "duration": 240,
    "velocity": 90
  },
  {
    "id": 1364,
    "note": 73,
    "at": 191520,
    "duration": 480,
    "velocity": 90
  },
  {
    "id": 1365,
    "note": 49,
    "at": 191760,
    "duration": 240,
    "velocity": 90
  },
  {
    "id": 1366,
    "note": 40,
    "at": 192000,
    "duration": 240,
    "velocity": 90
  },
  {
    "id": 1367,
    "note": 71,
    "at": 192000,
    "duration": 480,
    "velocity": 90
  },
  {
    "id": 1368,
    "note": 47,
    "at": 192240,
    "duration": 240,
    "velocity": 90
  },
  {
    "id": 1369,
    "note": 52,
    "at": 192480,
    "duration": 240,
    "velocity": 90
  },
  {
    "id": 1370,
    "note": 76,
    "at": 192480,
    "duration": 160,
    "velocity": 90
  },
  {
    "id": 1371,
    "note": 78,
    "at": 192640,
    "duration": 160,
    "velocity": 90
  },
  {
    "id": 1372,
    "note": 56,
    "at": 192720,
    "duration": 240,
    "velocity": 90
  },
  {
    "id": 1373,
    "note": 73,
    "at": 192800,
    "duration": 160,
    "velocity": 90
  },
  {
    "id": 1374,
    "note": 59,
    "at": 192960,
    "duration": 240,
    "velocity": 90
  },
  {
    "id": 1375,
    "note": 76,
    "at": 192960,
    "duration": 160,
    "velocity": 90
  },
  {
    "id": 1376,
    "note": 71,
    "at": 193120,
    "duration": 160,
    "velocity": 90
  },
  {
    "id": 1377,
    "note": 56,
    "at": 193200,
    "duration": 240,
    "velocity": 90
  },
  {
    "id": 1378,
    "note": 73,
    "at": 193280,
    "duration": 160,
    "velocity": 90
  },
  {
    "id": 1379,
    "note": 52,
    "at": 193440,
    "duration": 240,
    "velocity": 90
  },
  {
    "id": 1380,
    "note": 68,
    "at": 193440,
    "duration": 160,
    "velocity": 90
  },
  {
    "id": 1381,
    "note": 71,
    "at": 193600,
    "duration": 160,
    "velocity": 90
  },
  {
    "id": 1382,
    "note": 59,
    "at": 193680,
    "duration": 240,
    "velocity": 90
  },
  {
    "id": 1383,
    "note": 66,
    "at": 193760,
    "duration": 160,
    "velocity": 90
  },
  {
    "id": 1384,
    "note": 40,
    "at": 193920,
    "duration": 240,
    "velocity": 90
  },
  {
    "id": 1385,
    "note": 68,
    "at": 193920,
    "duration": 160,
    "velocity": 90
  },
  {
    "id": 1386,
    "note": 64,
    "at": 194080,
    "duration": 160,
    "velocity": 90
  },
  {
    "id": 1387,
    "note": 49,
    "at": 194160,
    "duration": 240,
    "velocity": 90
  },
  {
    "id": 1388,
    "note": 68,
    "at": 194240,
    "duration": 160,
    "velocity": 90
  },
  {
    "id": 1389,
    "note": 52,
    "at": 194400,
    "duration": 240,
    "velocity": 90
  },
  {
    "id": 1390,
    "note": 63,
    "at": 194400,
    "duration": 960,
    "velocity": 90
  },
  {
    "id": 1391,
    "note": 56,
    "at": 194640,
    "duration": 240,
    "velocity": 90
  },
  {
    "id": 1392,
    "note": 61,
    "at": 194880,
    "duration": 240,
    "velocity": 90
  },
  {
    "id": 1393,
    "note": 56,
    "at": 195120,
    "duration": 240,
    "velocity": 90
  },
  {
    "id": 1394,
    "note": 52,
    "at": 195360,
    "duration": 240,
    "velocity": 90
  },
  {
    "id": 1395,
    "note": 61,
    "at": 195360,
    "duration": 480,
    "velocity": 90
  },
  {
    "id": 1396,
    "note": 49,
    "at": 195600,
    "duration": 240,
    "velocity": 90
  },
  {
    "id": 1397,
    "note": 40,
    "at": 195840,
    "duration": 480,
    "velocity": 90
  },
  {
    "id": 1398,
    "note": 59,
    "at": 196000,
    "duration": 160,
    "velocity": 90
  },
  {
    "id": 1399,
    "note": 52,
    "at": 196160,
    "duration": 160,
    "velocity": 90
  },
  {
    "id": 1400,
    "note": 47,
    "at": 196320,
    "duration": 480,
    "velocity": 90
  },
  {
    "id": 1401,
    "note": 61,
    "at": 196480,
    "duration": 160,
    "velocity": 90
  },
  {
    "id": 1402,
    "note": 56,
    "at": 196640,
    "duration": 160,
    "velocity": 90
  },
  {
    "id": 1403,
    "note": 52,
    "at": 196800,
    "duration": 480,
    "velocity": 90
  },
  {
    "id": 1404,
    "note": 64,
    "at": 196960,
    "duration": 160,
    "velocity": 90
  },
  {
    "id": 1405,
    "note": 59,
    "at": 197120,
    "duration": 160,
    "velocity": 90
  },
  {
    "id": 1406,
    "note": 56,
    "at": 197280,
    "duration": 480,
    "velocity": 90
  },
  {
    "id": 1407,
    "note": 66,
    "at": 197440,
    "duration": 160,
    "velocity": 90
  },
  {
    "id": 1408,
    "note": 61,
    "at": 197600,
    "duration": 160,
    "velocity": 90
  },
  {
    "id": 1409,
    "note": 52,
    "at": 197760,
    "duration": 480,
    "velocity": 90
  },
  {
    "id": 1410,
    "note": 71,
    "at": 197920,
    "duration": 160,
    "velocity": 90
  },
  {
    "id": 1411,
    "note": 64,
    "at": 198080,
    "duration": 160,
    "velocity": 90
  },
  {
    "id": 1412,
    "note": 59,
    "at": 198240,
    "duration": 480,
    "velocity": 90
  },
  {
    "id": 1413,
    "note": 73,
    "at": 198400,
    "duration": 160,
    "velocity": 90
  },
  {
    "id": 1414,
    "note": 68,
    "at": 198560,
    "duration": 160,
    "velocity": 90
  },
  {
    "id": 1415,
    "note": 64,
    "at": 198720,
    "duration": 480,
    "velocity": 90
  },
  {
    "id": 1416,
    "note": 76,
    "at": 198880,
    "duration": 160,
    "velocity": 90
  },
  {
    "id": 1417,
    "note": 71,
    "at": 199040,
    "duration": 160,
    "velocity": 90
  },
  {
    "id": 1418,
    "note": 68,
    "at": 199200,
    "duration": 480,
    "velocity": 90
  },
  {
    "id": 1419,
    "note": 78,
    "at": 199360,
    "duration": 160,
    "velocity": 90
  },
  {
    "id": 1420,
    "note": 73,
    "at": 199520,
    "duration": 160,
    "velocity": 90
  },
  {
    "id": 1421,
    "note": 64,
    "at": 199680,
    "duration": 480,
    "velocity": 90
  },
  {
    "id": 1422,
    "note": 83,
    "at": 199840,
    "duration": 160,
    "velocity": 90
  },
  {
    "id": 1423,
    "note": 76,
    "at": 200000,
    "duration": 160,
    "velocity": 90
  },
  {
    "id": 1424,
    "note": 71,
    "at": 200160,
    "duration": 480,
    "velocity": 90
  },
  {
    "id": 1425,
    "note": 85,
    "at": 200320,
    "duration": 160,
    "velocity": 90
  },
  {
    "id": 1426,
    "note": 80,
    "at": 200480,
    "duration": 160,
    "velocity": 90
  },
  {
    "id": 1427,
    "note": 76,
    "at": 200640,
    "duration": 480,
    "velocity": 90
  },
  {
    "id": 1428,
    "note": 88,
    "at": 200800,
    "duration": 160,
    "velocity": 90
  },
  {
    "id": 1429,
    "note": 83,
    "at": 200960,
    "duration": 160,
    "velocity": 90
  },
  {
    "id": 1430,
    "note": 80,
    "at": 201120,
    "duration": 480,
    "velocity": 90
  },
  {
    "id": 1431,
    "note": 90,
    "at": 201280,
    "duration": 160,
    "velocity": 90
  },
  {
    "id": 1432,
    "note": 85,
    "at": 201440,
    "duration": 160,
    "velocity": 90
  },
  {
    "id": 1433,
    "note": 76,
    "at": 201600,
    "duration": 480,
    "velocity": 90
  },
  {
    "id": 1434,
    "note": 83,
    "at": 201600,
    "duration": 480,
    "velocity": 90
  },
  {
    "id": 1435,
    "note": 88,
    "at": 201600,
    "duration": 480,
    "velocity": 90
  },
  {
    "id": 1436,
    "note": 92,
    "at": 201600,
    "duration": 480,
    "velocity": 90
  },
  {
    "id": 1437,
    "note": 76,
    "at": 202080,
    "duration": 960,
    "velocity": 90
  },
  {
    "id": 1438,
    "note": 83,
    "at": 202080,
    "duration": 960,
    "velocity": 90
  },
  {
    "id": 1439,
    "note": 88,
    "at": 202080,
    "duration": 960,
    "velocity": 90
  },
  {
    "id": 1440,
    "note": 92,
    "at": 202080,
    "duration": 960,
    "velocity": 90
  },
  {
    "id": 1441,
    "note": 76,
    "at": 203040,
    "duration": 480,
    "velocity": 90
  },
  {
    "id": 1442,
    "note": 83,
    "at": 203040,
    "duration": 480,
    "velocity": 90
  },
  {
    "id": 1443,
    "note": 88,
    "at": 203040,
    "duration": 480,
    "velocity": 90
  },
  {
    "id": 1444,
    "note": 92,
    "at": 203040,
    "duration": 480,
    "velocity": 90
  },
  {
    "id": 1445,
    "note": 40,
    "at": 203520,
    "duration": 480,
    "velocity": 90
  },
  {
    "id": 1446,
    "note": 52,
    "at": 203520,
    "duration": 480,
    "velocity": 90
  },
  {
    "id": 1447,
    "note": 64,
    "at": 203520,
    "duration": 480,
    "velocity": 90
  }
]